# This file uses centimeters as units for non-parametric coordinates.

mtllib BigHouseMiddle.mtl
g default
v -197.803513 92.500748 -197.803513
v -200.000000 92.500748 -192.500748
v -197.803513 97.803520 -192.500748
v -192.500748 100.000000 -192.500748
v -192.500748 97.803520 -197.803513
v -192.500748 92.500748 -200.000000
v 197.803513 92.500748 -197.803513
v 192.500748 92.500748 -200.000000
v 192.500748 97.803520 -197.803513
v 192.500748 100.000000 -192.500748
v 197.803513 97.803520 -192.500748
v 200.000000 92.500748 -192.500748
v -197.803513 -97.803520 -192.500748
v -200.000000 -92.500748 -192.500748
v -197.803513 -92.500748 -197.803513
v -192.500748 -92.500748 -200.000000
v -192.500748 -97.803520 -197.803513
v -192.500748 -100.000000 -192.500748
v 197.803513 -97.803520 -192.500748
v 192.500748 -100.000000 -192.500748
v 192.500748 -97.803520 -197.803513
v 192.500748 -92.500748 -200.000000
v 197.803513 -92.500748 -197.803513
v 200.000000 -92.500748 -192.500748
v -192.500748 100.000000 200.000000
v -197.803513 97.803520 200.000000
v -200.000000 92.500748 200.000000
v 200.000000 92.500748 200.000000
v 197.803513 97.803520 200.000000
v 192.500748 100.000000 200.000000
v -200.000000 -92.500748 200.000000
v -197.803513 -97.803520 200.000000
v -192.500748 -100.000000 200.000000
v 192.500748 -100.000000 200.000000
v 197.803513 -97.803520 200.000000
v 200.000000 -92.500748 200.000000
v -197.803513 -92.500748 212.803513
v -200.000000 -92.500748 207.500748
v -197.803513 -97.803520 207.500748
v -192.500748 -100.000000 207.500748
v -192.500748 -97.803520 212.803513
v -192.500748 -92.500748 215.000000
v 197.803513 -92.500748 212.803513
v 192.500748 -92.500748 215.000000
v 192.500748 -97.803520 212.803513
v 192.500748 -100.000000 207.500748
v 197.803513 -97.803520 207.500748
v 200.000000 -92.500748 207.500748
v 192.500748 97.803520 212.803513
v 192.500748 92.500748 215.000000
v 197.803513 92.500748 212.803513
v 200.000000 92.500748 207.500748
v 197.803513 97.803520 207.500748
v 192.500748 100.000000 207.500748
v -197.803513 92.500748 212.803513
v -192.500748 92.500748 215.000000
v -192.500748 97.803520 212.803513
v -192.500748 100.000000 207.500748
v -197.803513 97.803520 207.500748
v -200.000000 92.500748 207.500748
v -196.828934 96.828934 -196.828934
v 196.828934 96.828934 -196.828934
v -196.828934 -96.828934 -196.828934
v 196.828934 -96.828934 -196.828934
v -196.828934 -96.828934 211.828934
v 196.828934 -96.828934 211.828934
v 196.828934 96.828934 211.828934
v -196.828934 96.828934 211.828934
vt 0.978679 0.497264
vt 0.985078 0.497087
vt 0.985617 0.703408
vt 0.979229 0.703245
vt 0.978880 0.490872
vt 0.984040 0.491930
vt 0.979429 0.709640
vt 0.984589 0.708571
vt 0.540954 0.703585
vt 0.541493 0.496925
vt 0.541524 0.490521
vt 0.540980 0.709986
vt 0.402094 0.183673
vt 0.533127 0.496911
vt 0.093667 0.189852
vt 0.412335 0.189811
vt 0.400721 0.192660
vt 0.105282 0.192701
vt 0.098329 0.194497
vt 0.407684 0.194460
vt 0.532536 0.496979
vt 0.538922 0.497147
vt 0.539321 0.703050
vt 0.532924 0.703222
vt 0.538726 0.490754
vt 0.533567 0.491819
vt 0.976342 0.703708
vt 0.977031 0.497127
vt 0.539115 0.709440
vt 0.533958 0.708378
vt 0.977009 0.490728
vt 0.976306 0.710110
vt 0.104003 0.833031
vt 0.984705 0.703729
vt 0.093762 0.826893
vt 0.412430 0.826852
vt 0.400814 0.824003
vt 0.105375 0.824044
vt 0.098412 0.822244
vt 0.407767 0.822207
vt 0.549359 0.464938
vt 0.543019 0.465153
vt 0.542900 0.032693
vt 0.549247 0.032644
vt 0.549167 0.471277
vt 0.544064 0.470256
vt 0.087510 0.200116
vt 0.976732 0.032625
vt 0.973237 0.468287
vt 0.973355 0.474632
vt 0.096531 0.201457
vt 0.976770 0.024332
vt 0.979573 0.468555
vt 0.983080 0.032718
vt 0.978474 0.473656
vt 0.096613 0.815298
vt 0.544904 0.028936
vt 0.551282 0.029204
vt 0.547844 0.467798
vt 0.541452 0.467706
vt 0.551162 0.022816
vt 0.546009 0.023800
vt 0.978013 0.032498
vt 0.978205 0.467701
vt 0.547807 0.476147
vt 0.978205 0.026117
vt 0.984396 0.032281
vt 0.984594 0.467650
vt 0.418587 0.816588
vt 0.409483 0.201406
vt 0.983342 0.027144
vt 0.409566 0.815247
vt 0.969038 0.945905
vt 0.962732 0.945732
vt 0.962746 0.742075
vt 0.969062 0.741900
vt 0.962900 0.952048
vt 0.968001 0.951006
vt 0.538913 0.945690
vt 0.538927 0.742034
vt 0.962920 0.735764
vt 0.968021 0.736802
vt 0.538739 0.952001
vt 0.532597 0.945866
vt 0.532621 0.741861
vt 0.538759 0.735718
vt 0.533638 0.950964
vt 0.533658 0.736760
vt 0.400362 0.201741
vt 0.105643 0.201797
vt 0.400453 0.814907
vt 0.105734 0.814963
vt 0.087555 0.816648
vt 0.549243 0.024350
vt 0.402211 0.833063
vt 0.985392 0.497130
vt 0.418541 0.200056
vt 0.978210 0.476051
vt 0.103885 0.183641
vt 0.532590 0.703588
vt 0.984675 0.710136
vt 0.984618 0.476005
vt 0.541397 0.476080
vt 0.532615 0.710000
vt 0.983137 0.024399
vt 0.985372 0.490720
vt 0.533151 0.490501
vt 0.542878 0.024395
vn -0.999919 0.011489 -0.005468
vn -0.924187 0.007178 -0.381874
vn -0.924187 -0.007178 -0.381874
vn -0.999919 -0.011489 -0.005468
vn -0.381876 0.007178 -0.924186
vn -0.005574 0.011488 -0.999919
vn -0.005574 -0.011488 -0.999919
vn -0.381876 -0.007178 -0.924186
vn -0.005602 0.999969 -0.005496
vn -0.382300 0.924032 -0.003421
vn -0.382684 0.923879 0.000000
vn -0.005628 0.999984 0.000000
vn -0.924031 0.382301 -0.003421
vn -0.999933 0.011541 0.000000
vn -0.923879 0.382685 0.000000
vn -0.003487 0.382293 -0.924035
vn 0.003487 0.382293 -0.924035
vn 0.005574 0.011488 -0.999919
vn -0.003487 0.924035 -0.382293
vn 0.005602 0.999969 -0.005496
vn 0.003487 0.924035 -0.382293
vn 0.381876 0.007178 -0.924186
vn 0.381876 -0.007178 -0.924186
vn 0.005574 -0.011488 -0.999919
vn 0.924187 0.007178 -0.381874
vn 0.999919 0.011489 -0.005468
vn 0.999919 -0.011489 -0.005468
vn 0.924187 -0.007178 -0.381874
vn 0.924031 0.382301 -0.003421
vn 0.923879 0.382685 0.000000
vn 0.999933 0.011541 0.000000
vn 0.382300 0.924032 -0.003421
vn 0.005628 0.999984 0.000000
vn 0.382684 0.923879 0.000000
vn -0.924031 -0.382301 -0.003421
vn -0.923879 -0.382685 0.000000
vn -0.999933 -0.011541 0.000000
vn -0.382300 -0.924032 -0.003421
vn -0.005602 -0.999969 -0.005496
vn -0.005628 -0.999984 0.000000
vn -0.382684 -0.923879 0.000000
vn -0.003487 -0.924035 -0.382293
vn 0.003487 -0.924035 -0.382293
vn 0.005602 -0.999969 -0.005496
vn -0.003487 -0.382293 -0.924035
vn 0.003487 -0.382293 -0.924035
vn 0.382300 -0.924032 -0.003421
vn 0.382684 -0.923879 0.000000
vn 0.005628 -0.999984 0.000000
vn 0.924031 -0.382301 -0.003421
vn 0.999933 -0.011541 0.000000
vn 0.923879 -0.382685 0.000000
vn -0.985741 -0.009778 0.167983
vn -0.924187 -0.007178 0.381874
vn -0.924187 0.007178 0.381874
vn -0.985741 0.009778 0.167983
vn -0.381873 -0.007178 0.924187
vn -0.005573 -0.011488 0.999919
vn -0.005573 0.011488 0.999919
vn -0.381873 0.007178 0.924187
vn -0.003487 -0.382293 0.924035
vn 0.003487 -0.382293 0.924035
vn 0.005573 -0.011488 0.999919
vn -0.003487 -0.924035 0.382293
vn -0.004760 -0.985682 0.168549
vn 0.004760 -0.985682 0.168549
vn 0.003487 -0.924035 0.382293
vn 0.381873 -0.007178 0.924187
vn 0.381873 0.007178 0.924187
vn 0.005573 0.011488 0.999919
vn 0.924187 -0.007178 0.381874
vn 0.985741 -0.009778 0.167983
vn 0.985741 0.009778 0.167983
vn 0.924187 0.007178 0.381874
vn 0.003487 0.382293 0.924035
vn -0.003487 0.382293 0.924035
vn 0.003487 0.924035 0.382293
vn 0.004760 0.985682 0.168549
vn -0.004760 0.985682 0.168549
vn -0.003487 0.924035 0.382293
vn -0.366850 0.922802 0.117719
vn -0.922802 0.366850 0.117718
vn 0.922802 0.366850 0.117718
vn 0.366850 0.922802 0.117719
vn -0.922802 -0.366850 0.117718
vn -0.366850 -0.922802 0.117719
vn 0.366850 -0.922802 0.117719
vn 0.922802 -0.366850 0.117718
vn -0.325272 0.325268 -0.887918
vn -0.887919 0.325270 -0.325269
vn -0.325269 0.887919 -0.325271
vn 0.887919 0.325269 -0.325269
vn 0.325271 0.325269 -0.887918
vn 0.325269 0.887919 -0.325271
vn -0.325269 -0.887919 -0.325271
vn -0.887919 -0.325269 -0.325269
vn -0.325271 -0.325269 -0.887918
vn 0.887919 -0.325270 -0.325269
vn 0.325269 -0.887919 -0.325271
vn 0.325272 -0.325268 -0.887918
vn -0.325269 -0.325269 0.887919
vn -0.887919 -0.325269 0.325268
vn -0.325268 -0.887919 0.325271
vn 0.887919 -0.325269 0.325269
vn 0.325269 -0.325269 0.887919
vn 0.325269 -0.887919 0.325271
vn 0.325268 0.887919 0.325271
vn 0.325269 0.325269 0.887919
vn 0.887919 0.325269 0.325268
vn -0.887919 0.325269 0.325269
vn -0.325269 0.325269 0.887919
vn -0.325269 0.887919 0.325271
s 1
g pCube1
usemtl initialShadingGroup
f 2/1/1 1/2/2 15/3/3 14/4/4
s 2
f 1/73/5 6/74/6 16/75/7 15/76/8
s 3
f 4/41/9 3/42/10 26/43/11 25/44/12
s 1
f 3/5/13 2/1/1 27/10/14 26/11/15
s 2
f 6/74/6 5/77/16 9/83/17 8/79/18
s 3
f 5/45/19 4/41/9 10/49/20 9/50/21
s 2
f 8/79/18 7/84/22 23/85/23 22/80/24
s 4
f 7/21/25 12/22/26 24/23/27 23/24/28
f 12/22/26 11/25/29 29/31/30 28/28/31
s 3
f 11/53/32 10/49/20 30/48/33 29/54/34
s 1
f 14/4/4 13/7/35 32/12/36 31/9/37
s 5
f 13/57/38 18/58/39 33/59/40 32/60/41
f 18/58/39 17/61/42 21/66/43 20/63/44
s 2
f 17/81/45 16/75/7 22/80/24 21/86/46
s 5
f 20/63/44 19/67/47 35/68/48 34/64/49
s 4
f 19/29/50 24/23/27 36/27/51 35/32/52
s 1
f 38/13/53 37/17/54 55/18/55 60/99/56
s 7
f 37/17/57 42/89/58 56/90/59 55/18/60
f 42/89/58 41/70/61 45/72/62 44/91/63
s 5
f 41/70/64 40/97/65 46/69/66 45/72/67
s 7
f 44/91/63 43/37/68 51/38/69 50/92/70
s 4
f 43/37/71 48/95/72 52/33/73 51/38/74
s 7
f 50/92/70 49/56/75 57/51/76 56/90/59
s 3
f 49/56/77 54/93/78 58/47/79 57/51/80
s 7
f 42/89/58 44/91/63 50/92/70 56/90/59
s 3
f 25/44/12 30/48/33 10/49/20 4/41/9
s 2
f 6/74/6 8/79/18 22/80/24 16/75/7
s 5
f 18/58/39 20/63/44 34/64/49 33/59/40
s 4
f 36/27/51 24/23/27 12/22/26 28/28/31
s 1
f 14/4/4 31/9/37 27/10/14 2/1/1
s 5
f 33/59/40 34/64/49 46/98/66 40/65/65
s 4
f 36/27/51 28/28/31 52/96/73 48/34/72
s 3
f 30/48/33 25/44/12 58/94/79 54/52/78
s 1
f 27/10/14 31/9/37 38/100/53 60/14/56
s 3
f 25/44/12 26/43/11 59/108/81 58/94/79
s 1
f 26/11/15 27/10/14 60/14/56 59/107/82
s 4
f 28/28/31 29/31/30 53/106/83 52/96/73
s 3
f 29/54/34 30/48/33 54/52/78 53/105/84
s 1
f 31/9/37 32/12/36 39/104/85 38/100/53
s 5
f 32/60/41 33/59/40 40/65/65 39/103/86
f 34/64/49 35/68/48 47/102/87 46/98/66
s 4
f 35/32/52 36/27/51 48/34/72 47/101/88
s 2
f 5/77/16 6/74/6 1/73/5 61/78/89
s 1
f 1/2/2 2/1/1 3/5/13 61/6/90
s 3
f 3/42/10 4/41/9 5/45/19 61/46/91
s 4
f 11/25/29 12/22/26 7/21/25 62/26/92
s 2
f 7/84/22 8/79/18 9/83/17 62/87/93
s 3
f 9/50/21 10/49/20 11/53/32 62/55/94
s 5
f 17/61/42 18/58/39 13/57/38 63/62/95
s 1
f 13/7/35 14/4/4 15/3/3 63/8/96
s 2
f 15/76/8 16/75/7 17/81/45 63/82/97
s 4
f 23/24/28 24/23/27 19/29/50 64/30/98
s 5
f 19/67/47 20/63/44 21/66/43 64/71/99
s 2
f 21/86/46 22/80/24 23/85/23 64/88/100
s 7
f 41/70/61 42/89/58 37/17/57 65/20/101
s 1
f 37/17/54 38/13/53 39/16/85 65/20/102
s 5
f 39/16/86 40/97/65 41/70/64 65/20/103
s 4
f 47/36/88 48/95/72 43/37/71 66/40/104
s 7
f 43/37/68 44/91/63 45/72/62 66/40/105
s 5
f 45/72/67 46/69/66 47/36/87 66/40/106
s 3
f 53/35/84 54/93/78 49/56/77 67/39/107
s 7
f 49/56/75 50/92/70 51/38/69 67/39/108
s 4
f 51/38/74 52/33/73 53/35/83 67/39/109
s 1
f 59/15/82 60/99/56 55/18/55 68/19/110
s 7
f 55/18/60 56/90/59 57/51/76 68/19/111
s 3
f 57/51/80 58/47/79 59/15/81 68/19/112
