# This file uses centimeters as units for non-parametric coordinates.

mtllib BigHouseCorner.mtl
g default
v -196.250381 -98.901756 198.901764
v -196.250381 -96.250374 200.000000
v -198.901764 -96.250374 198.901764
v -200.000000 -96.250374 196.250381
v -198.901764 -98.901756 196.250381
v -196.250381 -100.000000 196.250381
v -196.250381 98.901756 198.901764
v -196.250381 100.000000 196.250381
v -198.901764 98.901756 196.250381
v -200.000000 96.250374 196.250381
v -198.901764 96.250374 198.901764
v -196.250381 96.250374 200.000000
v -196.250381 98.901756 -198.901764
v -196.250381 96.250374 -200.000000
v -198.901764 96.250374 -198.901764
v -200.000000 96.250374 -196.250381
v -198.901764 98.901756 -196.250381
v -196.250381 100.000000 -196.250381
v -196.250381 -98.901756 -198.901764
v -196.250381 -100.000000 -196.250381
v -198.901764 -98.901756 -196.250381
v -200.000000 -96.250374 -196.250381
v -198.901764 -96.250374 -198.901764
v -196.250381 -96.250374 -200.000000
v 101.098244 98.901756 -202.651382
v 100.000000 96.250374 -203.749619
v 98.901756 96.250374 -201.098236
v 96.250374 96.250374 -200.000000
v 97.348618 98.901756 -198.901764
v 100.000000 100.000000 -196.250381
v 103.749626 100.000000 -200.000000
v 100.000000 -96.250374 -203.749619
v 101.098244 -98.901756 -202.651382
v 103.749626 -100.000000 -200.000000
v 100.000000 -100.000000 -196.250381
v 97.348618 -98.901756 -198.901764
v 96.250374 -96.250374 -200.000000
v 98.901756 -96.250374 -201.098236
v 102.651382 -100.000000 -197.348618
v 100.000000 -100.000000 196.250381
v 100.000000 -98.901756 198.901764
v 100.000000 -96.250374 200.000000
v 100.000000 96.250374 200.000000
v 100.000000 98.901756 198.901764
v 100.000000 100.000000 196.250381
v 200.000000 -96.250374 200.000000
v 200.000000 -98.901756 198.901764
v 200.000000 -100.000000 196.250381
v 200.000000 100.000000 196.250381
v 200.000000 98.901756 198.901764
v 200.000000 96.250374 200.000000
v 198.901764 -100.000000 -198.901764
v 200.000000 -100.000000 -196.250381
v 196.250381 -100.000000 -200.000000
v 210.150620 -98.924217 -213.895477
v 211.325867 -96.325867 -215.000000
v 213.924011 -96.364586 -213.946106
v 215.000000 -96.401360 -211.401352
v 213.901550 -98.946655 -210.198608
v 211.180527 -100.000000 -207.361053
v 210.061752 -100.000000 -210.060959
v 207.361053 -100.000000 -211.180527
v 213.901764 -96.250084 198.901764
v 211.250381 -96.250374 200.000000
v 211.250519 -98.901756 198.901764
v 211.250381 -100.000000 196.250381
v 213.901764 -98.901756 196.250381
v 215.000000 -96.250374 196.250381
v 198.901764 100.000000 -198.901764
v 196.250381 100.000000 -200.000000
v 200.000000 100.000000 -196.250381
v 210.150620 98.924217 -213.895477
v 207.361053 100.000000 -211.180527
v 210.012100 100.000000 -210.020111
v 211.110672 100.000000 -207.221359
v 213.882675 98.924797 -210.101776
v 215.000000 96.325867 -211.325867
v 213.923874 96.326538 -213.923874
v 211.325867 96.325867 -215.000000
v 213.901764 96.250229 198.901764
v 215.000000 96.250374 196.250381
v 213.901764 98.901756 196.250381
v 211.250381 100.000000 196.250381
v 211.250656 98.901756 198.901764
v 211.250381 96.250374 200.000000
v 101.098244 96.249832 -213.901764
v 100.000000 96.250374 -211.250381
v 101.098244 98.901756 -211.250900
v 103.749626 100.000000 -211.250381
v 103.749626 98.901756 -213.901764
v 103.749626 96.250374 -215.000000
v 101.098244 -96.249832 -213.901764
v 103.749626 -96.250374 -215.000000
v 103.749626 -98.901756 -213.901764
v 103.749626 -100.000000 -211.250381
v 101.098244 -98.901756 -211.250900
v 100.000000 -96.250374 -211.250381
v -198.414474 -98.414467 198.414474
v -198.414474 98.414467 198.414474
v -198.414474 98.414467 -198.414474
v -198.414474 -98.414467 -198.414474
v 100.000000 98.901756 -200.000000
v 100.000000 -98.901756 -200.000000
v 212.798828 -98.935455 -212.809509
v 213.414490 -98.414352 198.414474
v 212.783386 98.924400 -212.782761
v 213.414536 98.414406 198.414474
v 101.585526 98.414253 -213.414597
v 101.585526 -98.414253 -213.414597
vt 0.273229 0.438992
vt 0.273230 0.441873
vt 0.064093 0.441884
vt 0.064093 0.439004
vt 0.276110 0.438992
vt 0.275581 0.441343
vt 0.061213 0.439004
vt 0.061742 0.441355
vt 0.273206 0.012573
vt 0.064070 0.012584
vt 0.276086 0.012573
vt 0.061189 0.012585
vt 0.064069 0.009704
vt 0.273205 0.009692
vt 0.275557 0.010222
vt 0.061718 0.010233
vt 0.689380 0.514040
vt 0.686959 0.508194
vt 0.705918 0.508194
vt 0.705917 0.514040
vt 0.683535 0.514040
vt 0.681114 0.508194
vt 0.711762 0.514041
vt 0.711762 0.509269
vt 0.705917 0.938434
vt 0.689380 0.938434
vt 0.683535 0.938434
vt 0.711762 0.938433
vt 0.686959 0.944279
vt 0.705918 0.944279
vt 0.681114 0.944279
vt 0.710688 0.943205
vt 0.456114 0.503268
vt 0.456154 0.500503
vt 0.665497 0.500521
vt 0.665496 0.503344
vt 0.453349 0.504574
vt 0.453361 0.501738
vt 0.668320 0.504674
vt 0.668319 0.501761
vt 0.456290 0.946147
vt 0.665426 0.946141
vt 0.453410 0.946147
vt 0.668307 0.946141
vt 0.456291 0.949028
vt 0.665426 0.949022
vt 0.453940 0.948499
vt 0.667778 0.948493
vt 0.545520 0.017516
vt 0.542640 0.017516
vt 0.542719 0.443936
vt 0.545599 0.443935
vt 0.545520 0.014635
vt 0.543169 0.015165
vt 0.545600 0.446816
vt 0.543249 0.446287
vt 0.867451 0.443875
vt 0.867371 0.017456
vt 0.867371 0.014576
vt 0.864571 0.446756
vt 0.974900 0.446736
vt 0.976092 0.443855
vt 0.976013 0.017436
vt 0.870331 0.445068
vt 0.871525 0.447948
vt 0.972019 0.447930
vt 0.976013 0.014555
vt 0.867451 0.447949
vt 0.987026 0.458857
vt 0.988241 0.455924
vt 0.988236 0.017434
vt 0.868645 0.450829
vt 0.984092 0.460074
vt 0.871527 0.460171
vt 0.988235 0.014553
vt 0.991198 0.459006
vt 0.990000 0.461843
vt 0.991116 0.017433
vt 0.868647 0.460172
vt 0.987124 0.463023
vt 0.871528 0.463051
vt 0.990586 0.015082
vt 0.869177 0.462523
vt 0.542458 0.017148
vt 0.545339 0.017148
vt 0.545339 0.443568
vt 0.542458 0.443568
vt 0.545339 0.014268
vt 0.542987 0.014797
vt 0.867190 0.017148
vt 0.867190 0.443568
vt 0.545339 0.446448
vt 0.542987 0.445919
vt 0.867190 0.014268
vt 0.974638 0.446448
vt 0.971758 0.447642
vt 0.871264 0.447642
vt 0.975832 0.017148
vt 0.975832 0.443568
vt 0.864309 0.446448
vt 0.975832 0.014268
vt 0.986709 0.458528
vt 0.983829 0.459788
vt 0.871264 0.459864
vt 0.867190 0.447642
vt 0.987902 0.455487
vt 0.988054 0.017148
vt 0.988054 0.014268
vt 0.986859 0.462738
vt 0.989720 0.461529
vt 0.868383 0.450522
vt 0.868383 0.459865
vt 0.871264 0.462745
vt 0.990914 0.458616
vt 0.990935 0.017148
vt 0.990405 0.014797
vt 0.868912 0.462216
vt 0.518559 0.014043
vt 0.518560 0.016924
vt 0.309424 0.016961
vt 0.309423 0.014080
vt 0.521440 0.016923
vt 0.520911 0.014572
vt 0.518617 0.338775
vt 0.309481 0.338812
vt 0.306543 0.016961
vt 0.307072 0.014610
vt 0.521497 0.338775
vt 0.518636 0.447417
vt 0.309500 0.447454
vt 0.306600 0.338813
vt 0.521517 0.447416
vt 0.518638 0.459639
vt 0.309502 0.459676
vt 0.306620 0.447454
vt 0.521519 0.459639
vt 0.518639 0.462520
vt 0.309503 0.462557
vt 0.306622 0.459677
vt 0.520990 0.461990
vt 0.307152 0.462028
vt 0.223258 0.674674
vt 0.226138 0.674670
vt 0.226609 0.993641
vt 0.223727 0.992452
vt 0.223254 0.671794
vt 0.225606 0.672320
vt 0.223731 0.995332
vt 0.226613 0.996521
vt 0.014591 0.992760
vt 0.014122 0.674983
vt 0.014118 0.672102
vt 0.014595 0.995641
vt 0.011242 0.674987
vt 0.011712 0.993958
vt 0.011768 0.672635
vt 0.011717 0.996838
vt 0.954774 0.938600
vt 0.952183 0.944329
vt 0.717608 0.944279
vt 0.717608 0.938434
vt 0.960502 0.938686
vt 0.958021 0.944354
vt 0.712836 0.943204
vt 0.717608 0.514040
vt 0.954774 0.513873
vt 0.960502 0.513872
vt 0.952183 0.508145
vt 0.717608 0.508194
vt 0.957987 0.508144
vn -0.999980 -0.005615 0.002766
vn -0.924036 -0.003487 0.382290
vn -0.924036 0.003487 0.382290
vn -0.999980 0.005615 0.002766
vn -0.382290 -0.003487 0.924036
vn -0.003657 -0.005610 0.999978
vn -0.003657 0.005610 0.999978
vn -0.382290 0.003487 0.924036
vn -0.003666 -0.999990 0.002771
vn -0.382492 -0.923957 0.001719
vn -0.382492 -0.923957 -0.001719
vn -0.003666 -0.999990 -0.002759
vn -0.923957 -0.382493 0.001719
vn -0.999980 -0.005615 -0.002766
vn -0.923957 -0.382493 -0.001719
vn -0.923957 0.382493 0.001719
vn -0.923957 0.382493 -0.001719
vn -0.999980 0.005615 -0.002766
vn -0.382492 0.923957 0.001719
vn -0.003666 0.999990 0.002771
vn -0.003666 0.999990 -0.002759
vn -0.382492 0.923957 -0.001719
vn -0.003703 0.005620 -0.999977
vn -0.002299 0.382426 -0.923984
vn -0.005001 0.384446 -0.923134
vn -0.003703 0.006928 -0.999969
vn -0.002284 0.923982 -0.382428
vn -0.000017 0.999999 -0.001112
vn -0.001610 0.924189 -0.381932
vn -0.924036 0.003487 -0.382290
vn -0.924036 -0.003487 -0.382290
vn -0.382290 0.003487 -0.924036
vn -0.003703 -0.005620 -0.999977
vn -0.382290 -0.003487 -0.924036
vn -0.002284 -0.923982 -0.382428
vn -0.000730 -0.924137 -0.382061
vn -0.000010 -0.999999 -0.001114
vn -0.002299 -0.382426 -0.923983
vn -0.003703 -0.006928 -0.999969
vn -0.005001 -0.384446 -0.923134
vn -0.994225 0.007259 -0.107073
vn -0.898347 0.422267 -0.121095
vn -0.924864 0.374253 -0.067546
vn -0.994238 0.005394 -0.107061
vn -0.374125 0.927325 -0.009987
vn -0.004918 0.999987 -0.001342
vn -0.009025 0.996600 -0.081898
vn -0.375704 0.924989 -0.056939
vn -0.382674 0.008250 -0.923847
vn -0.382674 -0.008250 -0.923847
vn -0.923847 0.008250 -0.382674
vn -0.994225 -0.007259 -0.107073
vn -0.923847 -0.008250 -0.382674
vn -0.006924 -0.999975 -0.001109
vn -0.366859 -0.930094 -0.018400
vn -0.375704 -0.924989 -0.056939
vn -0.009025 -0.996600 -0.081898
vn -0.898347 -0.422267 -0.121095
vn -0.994238 -0.005394 -0.107061
vn -0.924864 -0.374253 -0.067547
vn 0.000000 -0.005628 0.999984
vn 0.000000 -0.382683 0.923880
vn 0.000000 -0.382682 0.923880
vn 0.000000 -0.005628 0.999984
vn 0.000000 -0.923879 0.382685
vn 0.000000 -0.999996 0.002779
vn 0.000000 -0.999996 0.002776
vn 0.000000 -0.923879 0.382684
vn 0.000000 0.999996 0.002779
vn 0.000000 0.923879 0.382685
vn 0.000000 0.923879 0.382685
vn 0.000000 0.999996 0.002777
vn 0.000000 0.382683 0.923880
vn 0.000000 0.005628 0.999984
vn 0.000000 0.005628 0.999984
vn 0.000000 0.382682 0.923880
vn 0.000000 -1.000000 0.000000
vn 0.000000 -1.000000 -0.000001
vn 0.055034 -0.996885 -0.056487
vn 0.163849 -0.986486 -0.000215
vn 0.000000 -1.000000 -0.000000
vn 0.000853 -0.986431 -0.164172
vn 0.009802 -0.004339 -0.999943
vn 0.005936 -0.389359 -0.921067
vn -0.006420 -0.386101 -0.922434
vn -0.009912 -0.005561 -0.999935
vn 0.008608 -0.930138 -0.367109
vn -0.006248 -0.927050 -0.374885
vn 0.999988 -0.004205 -0.002618
vn 0.922483 0.000098 -0.386037
vn 0.922486 0.006929 -0.385968
vn 0.999988 0.004243 -0.002638
vn 0.379207 -0.006688 -0.925288
vn 0.009727 0.004345 -0.999943
vn 0.379359 0.006741 -0.925225
vn 0.369407 -0.929265 -0.002424
vn 0.371659 -0.928368 0.001672
vn 0.078101 -0.996942 0.002549
vn 0.920806 -0.390017 -0.001558
vn 0.999981 -0.005604 0.002664
vn 0.921187 -0.389118 0.001779
vn 0.078435 -0.005244 0.996905
vn 0.382296 -0.003487 0.924033
vn 0.382296 0.003487 0.924033
vn 0.078437 0.005244 0.996905
vn 0.924035 -0.003487 0.382293
vn 0.999981 0.005651 0.002663
vn 0.924035 0.003487 0.382293
vn 0.000000 1.000000 0.000000
vn 0.000000 1.000000 0.000001
vn 0.057734 0.996797 -0.055341
vn 0.000909 0.986416 -0.164261
vn 0.000000 1.000000 0.000000
vn 0.164610 0.986359 -0.000238
vn 0.008991 0.930252 -0.366812
vn -0.006248 0.927050 -0.374885
vn 0.006180 0.389436 -0.921033
vn -0.009912 0.005561 -0.999935
vn -0.006420 0.386101 -0.922434
vn 0.921042 0.389460 -0.001616
vn 0.921418 0.388569 0.001695
vn 0.369625 0.929178 -0.002449
vn 0.078936 0.996876 0.002537
vn 0.371841 0.928295 0.001591
vn -0.924034 0.003486 -0.382295
vn -0.924034 -0.003486 -0.382295
vn -0.382285 0.003486 -0.924038
vn -0.382285 -0.003486 -0.924038
vn -0.006675 -0.999956 -0.006676
vn -0.002274 -0.382428 0.923982
vn -0.002274 -0.923981 0.382431
vn -0.002274 0.923981 0.382431
vn -0.002274 0.382428 0.923982
vn 0.051235 -0.376455 0.925017
vn 0.051235 -0.925015 0.376460
vn 0.051236 0.925016 0.376458
vn 0.051236 0.376454 0.925017
vn -0.325272 -0.887918 0.325270
vn -0.325267 -0.325269 0.887920
vn -0.887920 -0.325268 0.325268
vn -0.325265 0.325270 0.887920
vn -0.325273 0.887917 0.325270
vn -0.887920 0.325267 0.325269
vn -0.325272 0.887918 -0.325270
vn -0.325267 0.325269 -0.887920
vn -0.887920 0.325268 -0.325268
vn -0.325265 -0.325270 -0.887920
vn -0.325273 -0.887917 -0.325270
vn -0.887920 -0.325267 -0.325269
vn -0.219643 0.942799 -0.250771
vn -0.812520 0.475962 -0.336558
vn -0.336558 0.475963 -0.812519
vn -0.812520 -0.475962 -0.336558
vn -0.198756 -0.959683 -0.198758
vn -0.336558 -0.475963 -0.812520
vn 0.184639 -0.964378 -0.189428
vn 0.324322 -0.494060 -0.806672
vn 0.795265 -0.501451 -0.340735
vn 0.795265 -0.501451 -0.340735
vn 0.887917 -0.325255 0.325290
vn 0.325300 -0.325250 0.887915
vn 0.325298 -0.887904 0.325280
vn 0.335199 0.495649 -0.801233
vn 0.190342 0.964274 -0.184243
vn 0.801495 0.498530 -0.330262
vn 0.325298 0.325243 0.887918
vn 0.887923 0.325256 0.325271
vn 0.325293 0.887915 0.325257
vn -0.325294 0.325226 -0.887925
vn -0.887915 0.325211 -0.325339
vn -0.325266 0.887899 -0.325328
vn -0.887915 -0.325210 -0.325339
vn -0.325296 -0.325226 -0.887925
vn -0.325266 -0.887899 -0.325327
s 1
g pCube1
usemtl lambert2SG
f 4/1/1 3/2/2 11/3/3 10/4/4
s 2
f 3/118/5 2/119/6 12/120/7 11/121/8
s 3
f 6/49/9 5/50/10 21/51/11 20/52/12
s 1
f 5/5/13 4/1/1 22/9/14 21/11/15
f 10/4/4 9/7/16 17/12/17 16/10/18
s 4
f 9/84/19 8/85/20 18/86/21 17/87/22
s 5
f 14/142/23 13/143/24 29/144/25 28/145/26
s 4
f 13/92/27 18/86/21 30/91/28 29/100/29
s 1
f 16/10/18 15/13/30 23/14/31 22/9/14
s 5
f 15/146/32 14/142/23 24/151/33 23/152/34
s 3
f 20/52/12 19/55/35 36/60/36 35/57/37
s 5
f 19/154/38 24/151/33 37/150/39 36/155/40
s 6
usemtl lambert3SG
f 26/17/41 25/18/42 88/19/43 87/20/44
s 4
f 25/111/45 31/97/46 89/104/47 88/112/48
s 5
usemtl lambert2SG
f 28/145/26 27/148/49 38/153/50 37/150/39
s 6
f 27/21/51 26/17/41 32/26/52 38/27/53
s 3
usemtl lambert3SG
f 34/65/54 33/72/55 96/79/56 95/74/57
s 6
f 33/29/58 32/26/52 97/25/59 96/30/60
s 2
usemtl lambert2SG
f 42/124/61 41/128/62 47/132/63 46/129/64
s 3
f 41/59/65 40/58/66 48/63/67 47/67/68
s 4
f 45/90/69 44/94/70 50/101/71 49/98/72
s 2
f 44/131/73 43/125/74 51/130/75 50/135/76
s 3
usemtl lambert3SG
f 53/62/77 52/61/78 61/69/79 60/70/80
f 52/61/78 54/66/81 62/73/82 61/69/79
s 14
f 56/158/83 55/159/84 94/160/85 93/161/86
s 3
f 55/80/87 62/73/82 95/74/57 94/81/88
s 15
f 58/33/89 57/34/90 78/35/91 77/36/92
s 14
f 57/162/93 56/158/83 79/166/94 78/167/95
s 3
f 60/70/80 59/76/96 67/78/97 66/71/98
s 15
f 59/37/99 58/33/89 68/41/100 67/43/101
s 2
f 64/133/102 63/137/103 80/138/104 85/134/105
s 15
f 63/45/106 68/41/100 81/42/107 80/46/108
s 4
f 70/96/109 69/95/110 74/102/111 73/103/112
f 69/95/110 71/99/113 75/106/114 74/102/111
f 73/103/112 72/109/115 90/113/116 89/104/47
s 14
f 72/168/117 79/166/94 91/165/118 90/169/119
s 15
f 77/36/92 76/39/120 82/44/121 81/42/107
s 4
f 76/114/122 75/106/114 83/107/123 82/115/124
s 6
f 87/20/44 86/23/125 92/28/126 97/25/59
s 14
f 86/23/127 91/165/118 93/161/86 92/28/128
s 2
usemtl lambert2SG
f 12/120/7 2/119/6 42/124/61 43/125/74
s 4
f 18/86/21 8/85/20 45/90/69 30/91/28
s 3
f 6/49/9 20/52/12 35/57/37 40/58/66
s 15
usemtl lambert3SG
f 68/41/100 58/33/89 77/36/92 81/42/107
s 1
usemtl lambert2SG
f 22/9/14 4/1/1 10/4/4 16/10/18
s 14
usemtl lambert3SG
f 91/165/118 79/166/94 56/158/83 93/161/86
s 2
usemtl lambert2SG
f 43/125/74 42/124/61 46/129/64 51/130/75
s 3
usemtl lambert3SG
f 48/63/67 53/62/77 60/70/80 66/71/98
s 4
f 75/106/114 71/99/113 49/98/72 83/107/123
s 2
f 51/130/75 46/129/64 64/133/102 85/134/105
s 4
f 89/104/47 31/97/46 70/96/109 73/103/112
s 3
f 62/73/82 54/66/81 34/65/54 95/74/57
s 5
usemtl lambert2SG
f 14/142/23 28/145/26 37/150/39 24/151/33
s 6
usemtl lambert3SG
f 97/25/59 32/26/52 26/17/41 87/20/44
s 3
usemtl lambert2SG
f 52/61/78 53/62/77 35/57/37 39/64/129
s 4
f 69/95/110 70/96/109 31/97/46
s 2
f 2/119/6 1/122/130 41/128/62 42/124/61
s 3
f 1/53/131 6/49/9 40/58/66 41/59/65
s 4
f 8/85/20 7/88/132 44/94/70 45/90/69
s 2
f 7/126/133 12/120/7 43/125/74 44/131/73
usemtl lambert3SG
f 46/129/64 47/132/63 65/136/134 64/133/102
s 3
f 47/67/68 48/63/67 66/71/98 65/75/135
s 4
f 49/98/72 50/101/71 84/108/136 83/107/123
s 2
f 50/135/76 51/130/75 85/134/105 84/139/137
s 3
usemtl lambert2SG
f 5/50/10 6/49/9 1/53/131 98/54/138
s 2
f 1/122/130 2/119/6 3/118/5 98/123/139
s 1
f 3/2/2 4/1/1 5/5/13 98/6/140
s 2
f 11/121/8 12/120/7 7/126/133 99/127/141
s 4
f 7/88/132 8/85/20 9/84/19 99/89/142
s 1
f 9/7/16 10/4/4 11/3/3 99/8/143
s 4
f 17/87/22 18/86/21 13/92/27 100/93/144
s 5
f 13/143/24 14/142/23 15/146/32 100/147/145
s 1
f 15/13/30 16/10/18 17/12/17 100/16/146
s 5
f 23/152/34 24/151/33 19/154/38 101/156/147
s 3
f 19/55/35 20/52/12 21/51/11 101/56/148
s 1
f 21/11/15 22/9/14 23/14/31 101/15/149
s 4
f 31/97/46 25/111/45 102/105/150
s 6
f 25/18/42 26/17/41 27/21/51 102/22/151
s 5
f 27/148/49 28/145/26 29/144/25 102/149/152
s 4
f 29/100/29 30/91/28 31/97/46 102/105/150
s 6
f 38/27/53 32/26/52 33/29/58 103/31/153
s 3
f 33/72/55 34/65/54 39/64/129 103/68/154
f 39/64/129 35/57/37 36/60/36 103/68/154
s 5
f 36/155/40 37/150/39 38/153/50 103/157/155
s 3
usemtl lambert3SG
f 61/69/79 62/73/82 55/80/87 104/77/156
s 14
f 55/159/84 56/158/83 57/162/93 104/163/157
s 15
f 57/34/158 58/33/89 59/37/99 104/38/159
s 3
f 59/76/96 60/70/80 61/69/79 104/77/156
s 15
f 67/43/101 68/41/100 63/45/106 105/47/160
s 2
f 63/137/103 64/133/102 65/136/134 105/140/161
s 3
f 65/75/135 66/71/98 67/78/97 105/82/162
s 14
f 78/167/95 79/166/94 72/168/117 106/170/163
s 4
f 72/109/115 73/103/112 74/102/111 106/110/164
f 74/102/111 75/106/114 76/114/122 106/110/164
s 15
f 76/39/120 77/36/92 78/35/91 106/40/165
s 2
f 84/139/137 85/134/105 80/138/104 107/141/166
s 15
f 80/46/108 81/42/107 82/44/121 107/48/167
s 4
f 82/115/124 83/107/123 84/108/136 107/116/168
s 14
f 90/169/119 91/165/118 86/23/127 108/24/169
s 6
f 86/23/125 87/20/44 88/19/43 108/24/170
s 4
f 88/112/48 89/104/47 90/113/116 108/117/171
s 6
f 96/30/60 97/25/59 92/28/126 109/32/172
s 14
f 92/28/128 93/161/86 94/160/85 109/164/173
s 3
f 94/81/88 95/74/57 96/79/56 109/83/174
s 4
usemtl lambert2SG
f 69/95/110 31/97/46 30/91/28 71/99/113
f 71/99/113 30/91/28 45/90/69 49/98/72
s 3
f 35/57/37 53/62/77 48/63/67 40/58/66
f 52/61/78 39/64/129 34/65/54 54/66/81
