# This file uses centimeters as units for non-parametric coordinates.

mtllib BigHouseCornerSm.mtl
g default
v -196.250381 98.901756 -198.901764
v -196.250381 96.250374 -200.000000
v -198.901764 96.250374 -198.901764
v -200.000000 96.250374 -196.250381
v -198.901764 98.901756 -196.250381
v -196.250381 100.000000 -196.250381
v -196.250381 -98.901756 -198.901764
v -196.250381 -100.000000 -196.250381
v -198.901764 -98.901756 -196.250381
v -200.000000 -96.250374 -196.250381
v -198.901764 -96.250374 -198.901764
v -196.250381 -96.250374 -200.000000
v 101.098244 98.901756 -202.651382
v 100.000000 96.250374 -203.749619
v 98.901756 96.250374 -201.098236
v 96.250374 96.250374 -200.000000
v 97.348618 98.901756 -198.901764
v 100.000000 100.000000 -196.250381
v 103.749626 100.000000 -200.000000
v 100.000000 -96.250374 -203.749619
v 101.098244 -98.901756 -202.651382
v 103.749626 -100.000000 -200.000000
v 100.000000 -100.000000 -196.250381
v 97.348618 -98.901756 -198.901764
v 96.250374 -96.250374 -200.000000
v 98.901756 -96.250374 -201.098236
v 102.651382 -100.000000 -197.348618
v 198.901764 -100.000000 -198.901764
v 200.000000 -100.000000 -196.250381
v 196.250381 -100.000000 -200.000000
v 210.150620 -98.924217 -213.895477
v 211.325867 -96.325867 -215.000000
v 213.924011 -96.364586 -213.946106
v 215.000000 -96.401360 -211.401352
v 213.901550 -98.946655 -210.198608
v 211.180527 -100.000000 -207.361053
v 210.061752 -100.000000 -210.060959
v 207.361053 -100.000000 -211.180527
v 198.901764 100.000000 -198.901764
v 196.250381 100.000000 -200.000000
v 200.000000 100.000000 -196.250381
v 210.150620 98.924217 -213.895477
v 207.361053 100.000000 -211.180527
v 210.012100 100.000000 -210.020111
v 211.110672 100.000000 -207.221359
v 213.882675 98.924797 -210.101776
v 215.000000 96.325867 -211.325867
v 213.923874 96.326538 -213.923874
v 211.325867 96.325867 -215.000000
v 101.098244 96.249832 -213.901764
v 100.000000 96.250374 -211.250381
v 101.098244 98.901756 -211.250900
v 103.749626 100.000000 -211.250381
v 103.749626 98.901756 -213.901764
v 103.749626 96.250374 -215.000000
v 101.098244 -96.249832 -213.901764
v 103.749626 -96.250374 -215.000000
v 103.749626 -98.901756 -213.901764
v 103.749626 -100.000000 -211.250381
v 101.098244 -98.901756 -211.250900
v 100.000000 -96.250374 -211.250381
v -198.414474 98.414467 -198.414474
v -198.414474 -98.414467 -198.414474
v 100.000000 98.901756 -200.000000
v 100.000000 -98.901756 -200.000000
v 212.798828 -98.935455 -212.809509
v 212.783386 98.924400 -212.782761
v 101.585526 98.414253 -213.414597
v 101.585526 -98.414253 -213.414597
v 99.999969 100.000000 0.000341
v -196.250275 100.000000 0.000341
v -198.901764 98.901749 0.000341
v -200.000000 96.250366 0.000341
v -200.000000 -96.250366 0.000341
v -198.901764 -98.901749 0.000341
v -196.250275 -100.000000 0.000341
v 99.999969 -100.000000 0.000341
v 200.000000 -100.000000 0.000341
v 200.000000 100.000000 0.000341
v 0.000012 100.000000 -196.250366
v -0.000006 98.901756 -198.901764
v -0.000012 96.250374 -200.000000
v -0.000012 -96.250374 -200.000000
v -0.000006 -98.901756 -198.901764
v 0.000012 -100.000000 -196.250366
v 0.000013 -100.000000 0.000341
v 0.000013 100.000000 0.000341
v 211.183243 100.000000 0.000000
v 213.892609 98.912804 0.000000
v 215.000000 96.286522 0.000000
v 215.000000 -96.322739 0.000000
v 213.901657 -98.923340 0.000000
v 211.216522 -100.000000 0.000000
vt 0.283664 0.011696
vt 0.053674 0.015284
vt 0.287049 0.011152
vt 0.050273 0.014845
vt 0.053620 0.011855
vt 0.283610 0.008267
vt 0.286310 0.008540
vt 0.050930 0.012212
vt 0.030168 0.908602
vt 0.036492 0.908515
vt 0.036060 0.902112
vt 0.028980 0.902718
vt 0.465972 0.908492
vt 0.466401 0.902102
vt 0.472290 0.908591
vt 0.473479 0.902709
vt 0.036175 0.895699
vt 0.029496 0.896884
vt 0.030908 0.878252
vt 0.037110 0.879010
vt 0.037072 0.872603
vt 0.032061 0.873300
vt 0.465345 0.878929
vt 0.466280 0.895685
vt 0.465386 0.872522
vt 0.472960 0.896871
vt 0.471548 0.878182
vt 0.470397 0.873224
vt 0.800457 0.862424
vt 0.800511 0.866682
vt 0.480100 0.531123
vt 0.505349 0.860330
vt 0.804737 0.860772
vt 0.805123 0.865286
vt 0.500981 0.858665
vt 0.478642 0.526470
vt 0.503306 0.536622
vt 0.802285 0.534466
vt 0.806637 0.534559
vt 0.498911 0.536718
vt 0.299383 0.792838
vt 0.299382 0.796536
vt 0.046489 0.796489
vt 0.046490 0.792791
vt 0.046535 0.544731
vt 0.299428 0.544777
vt 0.299429 0.541079
vt 0.046536 0.541033
vt 0.801820 0.531548
vt 0.798129 0.531369
vt 0.801628 0.278610
vt 0.805326 0.278703
vt 0.798210 0.535065
vt 0.801184 0.534506
vt 0.545262 0.528078
vt 0.548859 0.275077
vt 0.803948 0.149514
vt 0.807583 0.153047
vt 0.545262 0.531777
vt 0.550638 0.146476
vt 0.808815 0.144633
vt 0.809021 0.149679
vt 0.804491 0.020371
vt 0.551979 0.017906
vt 0.807892 0.021798
vt 0.812418 0.148248
vt 0.552136 0.003494
vt 0.818715 0.006178
vt 0.809290 0.025217
vt 0.822294 0.007574
vt 0.823312 0.144282
vt 0.823568 0.147925
vt 0.552178 -0.000268
vt 0.822501 0.002385
vt 0.823752 0.010958
vt 0.826004 0.003894
vt 0.827010 0.144352
vt 0.826492 0.147299
vt 0.827524 0.007322
vt 0.293525 0.531022
vt 0.289832 0.531183
vt 0.287462 0.278368
vt 0.291160 0.278294
vt 0.293427 0.534716
vt 0.290455 0.534144
vt 0.285782 0.152778
vt 0.289433 0.149279
vt 0.543973 0.275800
vt 0.546449 0.528861
vt 0.546432 0.532561
vt 0.288002 0.145848
vt 0.284381 0.149408
vt 0.542643 0.147100
vt 0.285618 0.021835
vt 0.289021 0.020416
vt 0.280979 0.148009
vt 0.284570 0.144394
vt 0.541566 0.018195
vt 0.271181 0.007544
vt 0.274636 0.006122
vt 0.284218 0.025247
vt 0.269823 0.147698
vt 0.270074 0.144056
vt 0.541422 0.003741
vt 0.269770 0.010992
vt 0.270910 0.002396
vt 0.267495 0.003907
vt 0.266376 0.144126
vt 0.266897 0.147074
vt 0.541385 0.000012
vt 0.266002 0.007359
vt 0.746990 0.917305
vt 0.743297 0.917445
vt 0.742389 0.663663
vt 0.746086 0.663631
vt 0.746906 0.920998
vt 0.743926 0.920419
vt 0.742513 0.538352
vt 0.746208 0.539760
vt 0.994652 0.664328
vt 0.993815 0.916253
vt 0.993912 0.919949
vt 0.994795 0.540220
vt 0.997507 0.916392
vt 0.998350 0.664362
vt 0.996887 0.919363
vt 0.998493 0.538815
vt 0.476106 0.827337
vt 0.474436 0.831688
vt 0.310299 0.832044
vt 0.310404 0.827636
vt 0.305990 0.827760
vt 0.306728 0.831326
vt 0.310442 0.531110
vt 0.475776 0.531263
vt 0.306031 0.530990
vt 0.474110 0.526914
vt 0.310338 0.526702
vt 0.306767 0.527422
vt 0.001992 0.532368
vt 0.001992 0.279197
vt 0.260001 0.279197
vt 0.260000 0.532368
vt 0.260001 0.150192
vt 0.001992 0.150192
vt 0.258584 0.535789
vt 0.003409 0.535788
vt 0.001992 0.021188
vt 0.260001 0.021188
vt 0.255163 0.537205
vt 0.006829 0.537205
vt 0.260001 0.006761
vt 0.001992 0.006718
vt 0.258598 0.003266
vt 0.003381 0.003254
vt 0.255210 0.001837
vt 0.006736 0.001837
vt 0.500572 0.863252
vt 0.505214 0.864661
vt 0.480415 0.827519
vt 0.478977 0.832125
vn -0.005496 0.005602 -0.999969
vn -0.003421 0.382298 -0.924033
vn 0.000000 0.382682 -0.923880
vn 0.000000 0.005628 -0.999984
vn -0.003421 0.924033 -0.382298
vn -0.005496 0.999970 -0.005496
vn 0.000000 0.999985 -0.005521
vn 0.000000 0.923880 -0.382682
vn -0.999969 0.005602 -0.005496
vn -0.924036 0.003487 -0.382290
vn -0.924036 -0.003487 -0.382290
vn -0.999969 -0.005602 -0.005496
vn -0.382290 0.003487 -0.924036
vn -0.005496 -0.005602 -0.999969
vn -0.382290 -0.003487 -0.924036
vn -0.005496 -0.999970 -0.005496
vn -0.003421 -0.924033 -0.382298
vn 0.000000 -0.923880 -0.382682
vn 0.000000 -0.999985 -0.005521
vn -0.003421 -0.382298 -0.924033
vn 0.000000 -0.005628 -0.999984
vn 0.000000 -0.382682 -0.923880
vn -0.994225 0.007259 -0.107073
vn -0.898347 0.422267 -0.121095
vn -0.924864 0.374253 -0.067546
vn -0.994238 0.005394 -0.107061
vn -0.374125 0.927325 -0.009987
vn -0.004918 0.999987 -0.001342
vn -0.009025 0.996600 -0.081898
vn -0.375704 0.924989 -0.056939
vn -0.011050 0.006954 -0.999915
vn -0.382674 0.008250 -0.923847
vn -0.382674 -0.008250 -0.923847
vn -0.011050 -0.006954 -0.999915
vn -0.923847 0.008250 -0.382674
vn -0.994225 -0.007259 -0.107073
vn -0.923847 -0.008250 -0.382674
vn -0.006924 -0.999975 -0.001109
vn -0.366859 -0.930094 -0.018400
vn -0.375704 -0.924989 -0.056939
vn -0.009025 -0.996600 -0.081898
vn -0.898347 -0.422267 -0.121095
vn -0.994238 -0.005394 -0.107061
vn -0.924864 -0.374253 -0.067547
vn 0.000000 -1.000000 0.000000
vn 0.000000 -1.000000 -0.000001
vn 0.055034 -0.996885 -0.056487
vn 0.161661 -0.986846 -0.000422
vn 0.000000 -1.000000 -0.000000
vn 0.000853 -0.986431 -0.164172
vn 0.009802 -0.004339 -0.999943
vn 0.005936 -0.389359 -0.921067
vn -0.006420 -0.386101 -0.922434
vn -0.009912 -0.005561 -0.999935
vn 0.008608 -0.930138 -0.367109
vn -0.006248 -0.927050 -0.374885
vn 0.999978 -0.004230 -0.005020
vn 0.922483 0.000098 -0.386037
vn 0.922486 0.006929 -0.385968
vn 0.999978 0.004285 -0.005057
vn 0.379207 -0.006688 -0.925288
vn 0.009727 0.004345 -0.999943
vn 0.379359 0.006741 -0.925225
vn 0.362264 -0.932064 -0.004607
vn 0.366578 -0.930387 0.000020
vn 0.078500 -0.996914 0.000004
vn 0.999984 -0.005608 0.000001
vn 0.919710 -0.392599 0.000095
vn 0.919155 -0.393884 -0.003107
vn 0.000000 1.000000 0.000000
vn 0.000000 1.000000 0.000001
vn 0.057734 0.996797 -0.055341
vn 0.000909 0.986416 -0.164261
vn 0.000000 1.000000 0.000000
vn 0.163018 0.986623 -0.000439
vn 0.008991 0.930252 -0.366812
vn -0.006248 0.927050 -0.374885
vn 0.006180 0.389436 -0.921033
vn -0.009912 0.005561 -0.999935
vn -0.006420 0.386101 -0.922434
vn 0.919529 0.393010 -0.003140
vn 0.920078 0.391736 0.000026
vn 0.999984 0.005678 0.000000
vn 0.079751 0.996815 -0.000010
vn 0.366956 0.930238 -0.000046
vn 0.362728 0.931884 -0.004574
vn -0.924034 0.003486 -0.382295
vn -0.924034 -0.003486 -0.382295
vn -0.382285 0.003486 -0.924038
vn -0.382285 -0.003486 -0.924038
vn 0.000000 -1.000000 0.000000
vn 0.000000 1.000000 0.000000
vn -0.000038 -0.999999 -0.001534
vn -0.006675 -0.999956 -0.006676
vn -0.382297 0.924033 -0.003421
vn -0.325272 0.887918 -0.325270
vn -0.325267 0.325269 -0.887920
vn -0.924032 0.382301 -0.003421
vn -0.887920 0.325268 -0.325268
vn -0.325265 -0.325270 -0.887920
vn -0.382297 -0.924033 -0.003421
vn -0.325273 -0.887917 -0.325270
vn -0.924031 -0.382301 -0.003421
vn -0.887920 -0.325267 -0.325269
vn -0.219643 0.942799 -0.250771
vn -0.812520 0.475962 -0.336558
vn -0.014725 0.387840 -0.921609
vn -0.336558 0.475963 -0.812519
vn -0.004741 0.924784 -0.380462
vn -0.000067 0.999999 -0.001528
vn -0.812520 -0.475962 -0.336558
vn -0.198756 -0.959683 -0.198758
vn -0.002156 -0.924639 -0.380838
vn -0.014725 -0.387840 -0.921609
vn -0.336558 -0.475963 -0.812520
vn 0.184639 -0.964378 -0.189428
vn 0.324322 -0.494060 -0.806672
vn 0.795265 -0.501451 -0.340735
vn 0.795265 -0.501451 -0.340735
vn 0.335199 0.495649 -0.801233
vn 0.190342 0.964274 -0.184243
vn 0.801495 0.498530 -0.330262
vn -0.325294 0.325226 -0.887925
vn -0.887915 0.325211 -0.325339
vn -0.325266 0.887899 -0.325328
vn -0.887915 -0.325210 -0.325339
vn -0.325296 -0.325226 -0.887925
vn -0.325266 -0.887899 -0.325327
vn -0.005521 0.999985 0.000000
vn 0.000000 1.000000 0.000000
vn -0.382681 0.923881 0.000000
vn -0.999984 0.005628 0.000000
vn -0.923879 0.382685 0.000000
vn -0.999984 -0.005628 0.000000
vn -0.923879 -0.382685 0.000000
vn -0.005521 -0.999985 0.000000
vn -0.382681 -0.923881 0.000000
vn 0.000000 -1.000000 0.000000
vn 0.000000 -1.000000 -0.000000
vn 0.000000 1.000000 0.000000
vn -0.000000 0.923881 -0.382680
vn -0.000000 0.999985 -0.005449
vn 0.000000 0.005659 -0.999984
vn 0.000000 0.382682 -0.923880
vn 0.000000 -0.005659 -0.999984
vn 0.000000 -0.382682 -0.923880
vn -0.000000 -0.999985 -0.005449
vn -0.000000 -0.923881 -0.382680
vn 0.000000 -1.000000 -0.000000
vn 0.000000 1.000000 0.000000
vn 0.000000 0.000000 1.000000
vn 0.000000 0.000000 1.000000
vn 0.000000 0.000000 1.000000
vn 0.000000 0.000000 1.000000
vn 0.000000 0.000000 1.000000
vn 0.000000 0.000000 1.000000
vn 0.000000 0.000000 1.000000
vn 0.000000 0.000000 1.000000
vn 0.000000 0.000000 1.000000
vn 0.000000 0.000000 1.000000
vn 0.000000 0.000000 1.000000
vn 0.000000 0.000000 1.000000
vn 0.000030 0.000000 1.000000
vn 0.000030 0.000000 1.000000
vn 0.000030 0.000000 1.000000
vn 0.000030 0.000000 1.000000
vn 0.000000 0.000000 1.000000
vn 0.000000 0.000000 1.000000
vn 0.000000 0.000000 1.000000
vn 0.000000 0.000000 1.000000
vn 0.000000 0.000000 1.000000
vn 0.000000 0.000000 1.000000
vn 0.000000 0.000000 1.000000
vn 0.000000 0.000000 1.000000
vn -0.000000 0.000000 1.000000
vn -0.000000 0.000000 1.000000
vn -0.000000 0.000000 1.000000
vn -0.000000 0.000000 1.000000
vn 0.000000 0.000000 1.000000
vn 0.000000 0.000000 1.000000
vn 0.000000 0.000000 1.000000
vn 0.000000 0.000000 1.000000
s 1
g pCube1
usemtl lambert2SG
f 2/112/1 1/113/2 81/114/3 82/115/4
s 2
f 1/49/5 6/50/6 80/51/7 81/52/8
s 3
f 4/2/9 3/5/10 11/6/11 10/1/12
s 1
f 3/116/13 2/112/1 12/121/14 11/122/15
s 4
f 8/80/16 7/81/17 84/82/18 85/83/19
s 1
f 7/124/20 12/121/14 83/120/21 84/125/22
s 5
usemtl lambert3SG
f 14/17/23 13/18/24 52/19/25 51/20/26
s 6
f 13/66/27 19/61/28 53/71/29 52/72/30
s 7
usemtl lambert2SG
f 16/10/31 15/11/32 26/14/33 25/13/34
s 5
f 15/11/35 14/17/23 20/24/36 26/14/37
s 8
usemtl lambert3SG
f 22/97/38 21/96/39 60/102/40 59/103/41
s 5
f 21/26/42 20/24/36 61/23/43 60/27/44
s 8
f 29/95/45 28/94/46 37/99/47 36/100/48
f 28/94/46 30/101/49 38/105/50 37/99/47
s 10
f 32/128/51 31/129/52 58/130/53 57/131/54
s 8
f 31/111/55 38/105/50 59/103/41 58/108/56
s 11
f 34/29/57 33/30/58 48/159/59 47/32/60
s 10
f 33/160/61 32/128/51 49/135/62 48/31/63
s 8
f 35/106/64 92/110/65 93/104/66 36/100/48
s 11
f 34/29/57 91/38/67 92/39/68 35/33/69
s 6
f 40/69/70 39/65/71 44/70/72 43/75/73
f 39/65/71 41/63/74 45/68/75 44/70/72
f 43/75/73 42/79/76 54/77/77 53/71/29
s 10
f 42/137/78 49/135/62 55/134/79 54/138/80
s 11
f 46/35/81 89/40/82 90/37/83 47/32/60
s 6
f 45/68/75 88/67/84 89/73/85 46/74/86
s 5
f 51/20/26 50/21/87 56/25/88 61/23/43
s 10
f 50/136/89 55/134/79 57/131/54 56/132/90
s 11
f 90/37/83 91/38/67 34/29/57 47/32/60
s 10
f 55/134/79 49/135/62 32/128/51 57/131/54
s 8
f 93/104/66 78/98/91 29/95/45 36/100/48
s 6
f 79/64/92 88/67/84 45/68/75 41/63/74
f 53/71/29 19/61/28 40/69/70 43/75/73
s 8
f 38/105/50 30/101/49 22/97/38 59/103/41
s 1
usemtl lambert2SG
f 2/112/1 82/115/4 83/120/21 12/121/14
s 5
usemtl lambert3SG
f 61/23/43 20/24/36 14/17/23 51/20/26
s 8
usemtl lambert2SG
f 28/94/46 29/95/45 23/87/93 27/91/94
s 6
f 39/65/71 40/69/70 19/61/28
s 2
f 5/53/95 6/50/6 1/49/5 62/54/96
s 1
f 1/113/2 2/112/1 3/116/13 62/117/97
s 3
f 3/5/10 4/2/9 5/4/98 62/8/99
s 1
f 11/122/15 12/121/14 7/124/20 63/126/100
s 4
f 7/81/17 8/80/16 9/84/101 63/85/102
s 3
f 9/3/103 10/1/12 11/6/11 63/7/104
s 6
f 19/61/28 13/66/27 64/62/105
s 5
f 13/18/24 14/17/23 15/11/35 64/12/106
s 7
f 15/11/32 16/10/31 17/9/107 64/12/108
s 6
f 17/58/109 18/57/110 19/61/28 64/62/105
s 5
f 26/14/37 20/24/36 21/26/42 65/16/111
s 8
f 21/96/39 22/97/38 27/91/94 65/92/112
f 27/91/94 23/87/93 24/86/113 65/92/112
s 7
f 24/15/114 25/13/34 26/14/33 65/16/115
s 8
usemtl lambert3SG
f 37/99/47 38/105/50 31/111/55 66/107/116
s 10
f 31/129/52 32/128/51 33/160/61 66/161/117
s 11
f 33/30/118 34/29/57 35/33/69 66/34/119
s 8
f 35/106/64 36/100/48 37/99/47 66/107/116
s 10
f 48/31/63 49/135/62 42/137/78 67/36/120
s 6
f 42/79/76 43/75/73 44/70/72 67/76/121
f 44/70/72 45/68/75 46/74/86 67/76/121
s 11
f 46/35/81 47/32/60 48/159/59 67/158/122
s 10
f 54/138/80 55/134/79 50/136/89 68/139/123
s 5
f 50/21/87 51/20/26 52/19/25 68/22/124
s 6
f 52/72/30 53/71/29 54/77/77 68/78/125
s 5
f 60/27/44 61/23/43 56/25/88 69/28/126
s 10
f 56/132/90 57/131/54 58/130/53 69/133/127
s 8
f 58/108/56 59/103/41 60/102/40 69/109/128
s 6
usemtl lambert2SG
f 39/65/71 19/61/28 18/57/110 41/63/74
s 8
f 28/94/46 27/91/94 22/97/38 30/101/49
s 2
f 6/50/6 71/55/129 87/56/130 80/51/7
f 72/59/131 71/55/129 6/50/6 5/53/95
s 3
f 73/41/132 72/42/133 5/43/98 4/44/9
f 10/45/12 74/46/134 73/41/132 4/44/9
f 75/47/135 74/46/134 10/45/12 9/48/103
s 4
f 76/89/136 75/90/137 9/84/101 8/80/16
f 86/88/138 76/89/136 8/80/16 85/83/19
s 8
f 23/87/93 29/95/45 78/98/91 77/93/139
s 6
f 41/63/74 18/57/110 70/60/140 79/64/92
f 81/52/141 80/51/142 18/57/110 17/58/109
s 7
f 82/115/143 81/114/144 17/118/107 16/119/31
f 83/120/145 82/115/143 16/119/31 25/123/34
f 84/125/146 83/120/145 25/123/34 24/127/114
s 8
f 85/83/147 84/82/148 24/86/113 23/87/93
f 77/93/139 86/88/149 85/83/147 23/87/93
s 6
f 80/51/142 87/56/150 70/60/140 18/57/110
s off
f 76/140/151 86/141/152 87/142/153 71/143/154
f 70/144/155 87/142/156 86/141/157 77/145/158
f 77/145/159 78/148/160 79/149/161 70/144/162
usemtl lambert3SG
f 88/152/163 79/149/164 78/148/165 93/153/166
f 89/154/167 88/152/168 93/153/169 92/155/170
f 90/156/171 89/154/172 92/155/173 91/157/174
usemtl lambert2SG
f 71/143/175 72/146/176 75/147/177 76/140/178
f 72/146/179 73/150/180 74/151/181 75/147/182
