# This file uses centimeters as units for non-parametric coordinates.

mtllib BigHouseCorner.mtl
g default
v -200.000000 0.075659 200.000000
v -200.000000 200.075651 200.000000
v -200.000000 200.075651 -200.000000
v -200.000000 0.075659 -200.000000
v -200.000000 200.075651 0.000000
v -200.000000 0.075659 0.000000
v 0.000001 200.075651 200.000000
v 0.000000 200.075651 0.000000
v 0.000000 200.075651 -200.000000
v 0.000001 0.075659 -200.000000
v 0.000000 0.075659 0.000000
v 0.000000 0.075659 200.000000
v 0.000000 200.075651 100.000000
v -200.000000 200.075651 100.000000
v -200.000000 0.075659 100.000000
v 0.000001 0.075659 100.000000
v 200.365082 200.075651 200.000000
v 200.365082 200.075651 100.000000
v 200.365082 200.075651 0.000000
v 200.365082 200.075651 -200.000000
v 200.365082 0.075659 -200.000000
v 200.365082 0.075659 0.000000
v 200.365082 0.075659 100.000000
v 200.365082 0.075659 200.000000
v 200.365082 100.075651 200.000000
v 0.000000 100.075651 200.000000
v -200.000000 100.075651 200.000000
v -200.000000 100.075651 100.000000
v -200.000000 100.075651 0.000000
v -200.000000 100.075651 -200.000000
v 0.000000 100.075651 -200.000000
v 200.365082 100.075651 -200.000000
v 200.365082 100.075651 0.000000
v 200.365082 100.075651 100.000000
v 215.000000 0.075659 100.000000
v 215.000000 0.075659 200.000000
v -200.000000 0.075659 215.000000
v 0.000000 0.075659 215.000000
v 200.365082 0.075659 215.000000
v 215.000000 0.075659 215.000000
v 230.000000 0.075659 200.000000
v 205.124512 200.075651 177.873169
v 205.124512 200.075651 122.126839
v 210.240570 200.075651 177.873169
v 210.240570 200.075651 122.126839
v 211.500290 96.575948 100.000000
v 213.974960 99.050611 101.025040
v 215.000000 100.075651 103.499702
v 214.479614 200.075651 102.419327
v 215.000000 200.075651 103.499702
v 213.974960 200.075651 101.025040
v 211.500290 200.075651 100.000000
v 216.025040 100.075651 197.525330
v 214.623260 100.075651 199.623260
v 212.525330 100.075651 201.025040
v 214.479614 200.075651 197.580673
v 211.500290 200.075651 200.000000
v 213.974960 200.075651 198.974960
v 215.000000 200.075651 196.500290
v 0.000000 100.075651 211.500290
v 0.000000 99.050611 213.974960
v 0.000000 96.575948 215.000000
v -200.000000 96.575948 215.000000
v -200.000000 99.050611 213.974960
v -200.000000 100.075651 211.500290
v 200.365082 100.075651 211.500290
v 200.365082 99.050611 213.974960
v 200.365082 96.575948 215.000000
v 215.000000 100.075651 211.500290
v 215.000000 99.050611 213.974960
v 215.000000 96.575948 215.000000
v 228.974960 99.050611 103.499702
v 230.000000 96.575948 103.499702
v 228.974960 96.575948 101.025040
v 226.500290 96.575948 100.000000
v 226.500290 99.050611 101.025040
v 226.500290 100.075651 103.499702
v 230.000000 0.075659 103.499702
v 226.500290 0.075659 100.000000
v 228.974960 0.075659 101.025040
v 230.000000 96.575948 200.000000
v 228.974960 99.050611 200.000000
v 226.500290 100.075651 200.000000
v 225.288834 100.075651 210.288834
v 222.739822 100.075651 211.369904
v 225.429337 99.071920 213.957275
v 226.570755 96.646406 215.000000
v 228.995911 96.694578 214.016205
v 230.000000 96.716863 211.641220
v 228.962814 99.092970 210.474686
v 226.369904 100.075651 207.739822
v 230.000000 0.075659 211.500290
v 228.974960 0.075659 213.974960
v 226.500290 0.075659 215.000000
v 228.520142 98.595800 101.479851
v 227.919434 99.086080 212.929321
vt 0.375000 0.250000
vt 0.375000 0.500000
vt 0.375000 0.750000
vt 0.125000 0.000000
vt 0.125000 0.250000
vt 0.250000 0.250000
vt 0.375000 0.375000
vt 0.250000 0.000000
vt 0.375000 0.875000
vt 0.500000 0.250000
vt 0.500000 0.375000
vt 0.500000 0.500000
vt 0.500000 0.750000
vt 0.500000 0.875000
vt 0.500000 1.000000
vt 0.500000 0.312500
vt 0.312500 0.250000
vt 0.375000 0.312500
vt 0.312500 0.000000
vt 0.375000 0.937500
vt 0.500000 0.937500
vt 0.597413 0.375000
vt 0.597413 0.500000
vt 0.597413 0.750000
vt 0.597413 0.875000
vt 0.597413 1.000000
vt 0.312500 0.125000
vt 0.250000 0.125000
vt 0.125000 0.125000
vt 0.375000 0.625000
vt 0.500000 0.625000
vt 0.597413 0.625000
vt 0.597413 0.625000
vt 0.597413 0.250000
vt 0.597413 0.937500
vt 0.597413 0.250000
vt 0.597413 0.312500
vt 0.597413 0.312500
vt 0.597413 0.312500
vt 0.597413 0.250000
vt 0.597413 0.310313
vt 0.597413 0.312500
vt 0.597413 0.250000
vt 0.597413 0.252187
vt 0.375000 0.138124
vt 0.375000 0.125000
vt 0.597413 0.607502
vt 0.597413 0.937500
vt 0.597413 0.638124
vt 0.597413 0.939687
vt 0.597413 1.000000
vt 0.597413 0.155006
vt 0.597413 1.000000
vt 0.500000 1.000000
vt 0.597413 1.000000
vt 0.500000 0.155622
vt 0.597413 0.155622
vt 0.597413 0.625000
vt 0.597413 0.635937
vt 0.597413 0.155622
vt 0.597413 1.000000
vt 0.375000 0.125000
vt 0.500000 0.125000
vt 0.500000 0.125000
vt 0.597413 0.125000
vt 0.597413 1.000000
vt 0.597413 0.154389
vt 0.597413 0.125000
vt 0.597413 0.125000
vt 0.597413 0.937500
vt 0.597413 0.635937
vt 0.597413 0.607502
vt 0.597413 0.137373
vt 0.597413 0.125000
vt 0.597413 0.155622
vt 0.597413 0.125000
vt 0.597413 0.312500
vt 0.597413 0.250000
vt 0.375000 0.500000
vt 0.375000 0.500000
vt 0.597413 1.000000
vt 0.597413 0.125000
vt 0.597413 0.125000
vt 0.597413 0.625000
vt 0.597413 0.312500
vt 0.597413 0.125000
vt 0.597413 0.250000
vt 0.500000 0.125000
vt 0.375000 0.125000
vt 0.597413 0.125000
vt 0.597413 0.125000
vt 0.597413 0.622515
vt 0.597413 0.636884
vt 0.597413 0.622317
vt 0.597413 0.937500
vt 0.597413 0.125000
vt 0.597413 0.125000
vt 0.597413 0.138092
vt 0.597413 0.154614
vt 0.597413 0.136788
vt 0.597413 1.000000
vt 0.597413 0.625000
vt 0.597413 0.125000
vn 0.000000 1.000000 0.000000
vn 0.000000 1.000000 0.000000
vn 0.000000 1.000000 0.000000
vn 0.000000 1.000000 0.000000
vn 0.000000 0.000000 -1.000000
vn 0.000000 0.000000 -1.000000
vn 0.000000 0.000000 -1.000000
vn 0.000000 0.000000 -1.000000
vn 0.000000 -1.000000 0.000000
vn 0.000000 -1.000000 0.000000
vn 0.000000 -1.000000 0.000000
vn 0.000000 -1.000000 0.000000
vn -1.000000 0.000000 0.000000
vn -1.000000 0.000000 0.000000
vn -1.000000 0.000000 0.000000
vn -1.000000 0.000000 0.000000
vn 0.000000 1.000000 0.000000
vn 0.000000 1.000000 0.000000
vn 0.000000 1.000000 0.000000
vn 0.000000 1.000000 0.000000
vn -1.000000 0.000000 0.000000
vn -1.000000 0.000000 0.000000
vn -1.000000 0.000000 0.000000
vn -1.000000 0.000000 0.000000
vn 0.000000 -1.000000 0.000000
vn 0.000000 -1.000000 0.000000
vn 0.000000 -1.000000 0.000000
vn 0.000000 -1.000000 0.000000
vn 0.000000 1.000000 -0.000000
vn 0.000000 1.000000 -0.000000
vn 0.000000 1.000000 -0.000000
vn 0.000000 1.000000 -0.000000
vn 0.000000 1.000000 0.000000
vn 0.000000 1.000000 0.000000
vn 0.000000 1.000000 0.000000
vn 0.000000 1.000000 0.000000
vn 0.000000 0.000000 -1.000000
vn 0.000000 0.000000 -1.000000
vn 0.000000 0.000000 -1.000000
vn 0.000000 0.000000 -1.000000
vn 0.000000 -1.000000 0.000000
vn 0.000000 -1.000000 0.000000
vn 0.000000 -1.000000 0.000000
vn 0.000000 -1.000000 0.000000
vn 0.000000 -1.000000 0.000000
vn 0.000000 -1.000000 0.000000
vn 0.000000 -1.000000 0.000000
vn 0.000000 -1.000000 0.000000
vn 0.000000 1.000000 0.000000
vn 0.000000 1.000000 0.000000
vn 0.000000 1.000000 0.000000
vn 0.000000 1.000000 0.000000
vn 0.000000 1.000000 0.000000
vn 0.000000 1.000000 0.000000
vn 0.000000 1.000000 0.000000
vn 0.000000 1.000000 0.000000
vn -1.000000 0.000000 0.000000
vn -1.000000 0.000000 0.000000
vn -1.000000 0.000000 0.000000
vn -1.000000 0.000000 0.000000
vn 0.000000 -1.000000 0.000000
vn 0.000000 -1.000000 0.000000
vn 0.000000 -1.000000 0.000000
vn 0.000000 -1.000000 0.000000
vn 0.000000 -1.000000 0.000000
vn 0.000000 -1.000000 0.000000
vn 0.000000 -1.000000 0.000000
vn 0.000000 -1.000000 0.000000
vn 1.000000 0.000000 0.000000
vn 1.000000 0.000000 0.000000
vn 1.000000 0.000000 0.000000
vn 1.000000 0.000000 0.000000
vn 1.000000 0.000000 0.000000
vn 1.000000 0.000000 0.000000
vn 1.000000 0.000000 0.000000
vn 1.000000 0.000000 0.000000
vn 0.000000 0.000000 1.000000
vn 0.000000 0.000000 1.000000
vn 0.000000 0.000000 1.000000
vn 0.000000 0.000000 1.000000
vn 0.000000 0.000000 1.000000
vn 0.000000 0.000000 1.000000
vn 0.000000 0.000000 1.000000
vn 0.000000 0.000000 1.000000
vn -1.000000 0.000000 0.000000
vn -1.000000 0.000000 0.000000
vn -1.000000 0.000000 0.000000
vn -1.000000 0.000000 0.000000
vn -1.000000 0.000000 0.000000
vn -1.000000 0.000000 0.000000
vn -1.000000 0.000000 0.000000
vn -1.000000 0.000000 0.000000
vn -1.000000 0.000000 0.000000
vn -1.000000 0.000000 0.000000
vn -1.000000 0.000000 0.000000
vn -1.000000 0.000000 0.000000
vn 0.000000 0.000000 -1.000000
vn 0.000000 0.000000 -1.000000
vn 0.000000 0.000000 -1.000000
vn 0.000000 0.000000 -1.000000
vn 0.000000 0.000000 -1.000000
vn 0.000000 0.000000 -1.000000
vn 0.000000 0.000000 -1.000000
vn 0.000000 0.000000 -1.000000
vn 1.000000 0.000000 0.000000
vn 1.000000 0.000000 0.000000
vn 1.000000 0.000000 0.000000
vn 1.000000 0.000000 0.000000
vn 1.000000 0.000000 0.000000
vn 1.000000 0.000000 0.000000
vn 1.000000 0.000000 0.000000
vn 1.000000 0.000000 0.000000
vn 0.000000 -1.000000 0.000000
vn 0.000000 -1.000000 0.000000
vn 0.000000 -1.000000 0.000000
vn 0.000000 -1.000000 0.000000
vn 0.000000 1.000000 0.000000
vn 0.000000 1.000000 0.000000
vn 0.000000 1.000000 0.000000
vn 0.000000 1.000000 0.000000
vn 0.000000 -1.000000 0.000000
vn 0.000000 -1.000000 0.000000
vn 0.000000 -1.000000 0.000000
vn 0.000000 -1.000000 0.000000
vn 0.000000 -1.000000 0.000000
vn 0.000000 -1.000000 0.000000
vn 0.000000 -1.000000 0.000000
vn 0.000000 -1.000000 0.000000
vn 0.000000 -1.000000 0.000000
vn 0.000000 -1.000000 0.000000
vn 0.000000 -1.000000 0.000000
vn 0.000000 1.000000 0.000000
vn 0.000000 1.000000 0.000000
vn 0.000000 1.000000 0.000000
vn 0.000000 1.000000 0.000000
vn 0.000000 1.000000 0.000000
vn 0.000000 1.000000 0.000000
vn 0.000000 1.000000 0.000000
vn 0.000000 1.000000 0.000000
vn 0.000000 1.000000 0.000000
vn 0.000000 1.000000 -0.000000
vn 0.000000 1.000000 -0.000000
vn 0.000000 1.000000 -0.000000
vn 0.000000 1.000000 -0.000000
vn 0.000000 1.000000 -0.000000
vn 0.000000 1.000000 0.000000
vn 0.000000 1.000000 0.000000
vn 0.000000 1.000000 0.000000
vn 0.000000 1.000000 0.000000
vn 0.923880 0.000000 -0.382683
vn 0.923880 0.000000 -0.382683
vn 0.923880 0.000000 -0.382683
vn 0.923880 0.000000 -0.382683
vn 0.382680 0.000000 -0.923881
vn 0.382680 0.000000 -0.923881
vn 0.382680 0.000000 -0.923881
vn 0.382680 0.000000 -0.923881
vn 0.468770 0.011312 0.883248
vn 0.468770 0.011312 0.883248
vn 0.468770 0.011312 0.883248
vn 0.468770 0.011312 0.883248
vn 0.883248 0.011312 0.468769
vn 0.883248 0.011312 0.468769
vn 0.883248 0.011312 0.468769
vn 0.883248 0.011312 0.468769
vn 0.000000 0.382684 0.923880
vn 0.000000 0.382684 0.923880
vn 0.000000 0.382684 0.923879
vn 0.000000 0.382684 0.923879
vn 0.000000 0.923880 0.382683
vn 0.000000 0.923880 0.382683
vn 0.000000 0.923880 0.382683
vn 0.000000 0.923880 0.382683
vn 0.923880 0.382682 0.000000
vn 0.923880 0.382682 0.000000
vn 0.923880 0.382682 0.000000
vn 0.923880 0.382682 0.000000
vn 0.382682 0.923880 0.000000
vn 0.382682 0.923880 0.000000
vn 0.382682 0.923880 0.000000
vn 0.382682 0.923880 0.000000
vn 0.382681 0.000000 -0.923881
vn 0.382681 0.000000 -0.923881
vn 0.382681 0.000000 -0.923881
vn 0.382681 0.000000 -0.923881
vn 0.923880 0.000000 -0.382684
vn 0.923880 0.000000 -0.382684
vn 0.923880 0.000000 -0.382684
vn 0.923880 0.000000 -0.382684
vn 0.922506 -0.000464 0.385983
vn 0.922506 -0.000464 0.385983
vn 0.922506 -0.000464 0.385983
vn 0.922506 -0.000464 0.385983
vn 0.379346 -0.000377 0.925255
vn 0.379346 -0.000377 0.925255
vn 0.379346 -0.000377 0.925255
vn 0.379346 -0.000377 0.925255
vn 0.000000 0.000000 1.000000
vn 0.000000 0.000000 1.000000
vn 0.000000 0.000000 1.000000
vn 0.000000 0.000000 1.000000
vn 0.000000 0.000000 1.000000
vn 0.000000 0.000000 1.000000
vn 1.000000 0.000000 0.000000
vn 1.000000 0.000000 0.000000
vn 1.000000 -0.000000 0.000000
vn 1.000000 -0.000000 0.000000
vn 0.999972 0.005097 -0.005481
vn 0.999972 0.005097 -0.005481
vn 0.999972 0.005097 -0.005481
vn 0.999972 0.005097 -0.005481
vn 0.000001 0.000000 -1.000000
vn 0.000001 0.000000 -1.000000
vn 0.000000 0.000000 -1.000000
vn 0.000000 0.000000 -1.000000
vn -0.000000 0.000000 1.000000
vn -0.000000 0.000000 1.000000
vn 0.000000 0.000000 -1.000000
vn 0.000000 0.000000 -1.000000
vn -0.043959 0.004895 0.999021
vn -0.043959 0.004895 0.999021
vn -0.043959 0.004895 0.999021
vn -0.043959 0.004895 0.999021
vn 0.000000 1.000000 0.000000
vn 0.000000 1.000000 0.000000
vn 0.000000 1.000000 0.000000
vn 0.000000 1.000000 0.000000
vn 0.000000 1.000000 0.000000
vn 0.000000 1.000000 0.000000
vn 1.000000 -0.000000 0.000000
vn 1.000000 -0.000000 0.000000
vn 0.000000 1.000000 0.000000
vn 0.000000 1.000000 0.000000
vn 0.000000 0.000000 -1.000000
vn 0.000000 0.000000 -1.000000
vn 0.000000 1.000000 0.000000
vn 0.000000 1.000000 0.000000
vn 0.000000 1.000000 0.000000
vn 0.000000 1.000000 0.000000
vn 0.000000 1.000000 0.000000
vn -0.000000 0.000000 1.000000
vn -0.000000 0.000000 1.000000
vn 0.000000 1.000000 0.000000
vn 0.000000 1.000000 0.000000
vn 0.000000 1.000000 -0.000008
vn -1.000000 0.000000 0.000000
vn -1.000000 0.000000 0.000000
vn -1.000000 0.000000 0.000000
vn -1.000000 0.000000 0.000000
vn 0.000000 -1.000000 0.000000
vn 0.000000 -1.000000 0.000000
vn 0.000000 -1.000000 0.000000
vn 0.000000 -1.000000 0.000000
vn 0.000000 -1.000000 0.000000
vn 0.000000 -1.000000 0.000000
vn 0.000000 -1.000000 0.000000
vn 0.000000 0.382684 -0.923879
vn 0.000000 0.382684 -0.923879
vn 0.000000 0.382684 -0.923879
vn 0.000000 0.382684 -0.923879
vn 0.000000 0.923880 -0.382684
vn 0.000000 0.923880 -0.382684
vn 0.000000 0.923880 -0.382684
vn 0.000000 0.923880 -0.382684
vn 0.000000 1.000000 0.000000
vn 0.000000 1.000000 0.000000
vn 0.000000 0.923880 0.382683
vn 0.000000 0.923880 0.382683
vn 0.000000 0.382684 0.923879
vn 0.000000 0.382684 0.923879
vn 0.000000 0.923880 0.382683
vn 0.000000 0.923880 0.382683
vn 0.000000 0.382684 0.923879
vn 0.000000 0.382684 0.923879
vn 0.001935 0.928579 0.371129
vn 0.001935 0.928579 0.371129
vn 0.001935 0.928579 0.371129
vn 0.001935 0.928579 0.371129
vn -0.000882 0.388606 0.921404
vn -0.000882 0.388606 0.921404
vn -0.000882 0.388606 0.921404
vn -0.000882 0.388606 0.921403
vn 0.920520 0.390686 -0.002732
vn 0.920520 0.390686 -0.002732
vn 0.920520 0.390686 -0.002732
vn 0.920520 0.390686 -0.002732
vn 0.367996 0.929827 0.000717
vn 0.367996 0.929827 0.000717
vn 0.367996 0.929827 0.000717
vn 0.367996 0.929827 0.000717
vn 0.325267 0.887920 -0.325269
vn 0.325267 0.887920 -0.325269
vn 0.325267 0.887920 -0.325269
vn 0.325267 0.887920 -0.325269
vn 0.887917 0.325276 -0.325268
vn 0.887917 0.325275 -0.325268
vn 0.887917 0.325276 -0.325268
vn 0.887917 0.325275 -0.325268
vn 0.325266 0.325268 -0.887920
vn 0.325266 0.325268 -0.887920
vn 0.325266 0.325268 -0.887920
vn 0.325266 0.325268 -0.887920
vn 0.251756 0.961722 0.108215
vn 0.251756 0.961721 0.108215
vn 0.251756 0.961722 0.108215
vn 0.251756 0.961721 0.108215
vn 0.105566 0.960179 0.258674
vn 0.105566 0.960179 0.258674
vn 0.105566 0.960179 0.258674
vn 0.105566 0.960179 0.258674
vn 0.321942 0.502871 0.802168
vn 0.321942 0.502871 0.802168
vn 0.321942 0.502871 0.802168
vn 0.321942 0.502871 0.802168
vn 0.790625 0.510385 0.338260
vn 0.790625 0.510385 0.338260
vn 0.790625 0.510385 0.338260
vn 0.790625 0.510385 0.338260
s off
g pCube1
usemtl initialShadingGroup
f 2/1/1 7/10/2 13/16/3 14/18/4
f 30/30/5 31/31/6 10/13/7 4/3/8
f 15/20/9 16/21/10 12/15/11 1/79/12
s 1
f 15/19/13 1/79/14 27/62/15 28/27/16
s off
f 5/7/17 8/11/18 9/12/19 3/2/20
f 4/4/21 6/8/22 29/28/23 30/29/24
f 4/3/25 10/13/26 11/14/27 6/9/28
f 7/10/29 17/34/30 18/37/31 13/16/32
f 9/12/33 8/11/34 19/22/35 20/23/36
f 10/13/37 31/31/38 32/32/39 21/24/40
f 11/14/41 10/13/42 21/24/43 22/25/44
f 12/15/45 16/21/46 23/35/47 24/26/48
f 13/16/49 18/37/50 19/22/51 8/11/52
f 14/18/53 13/16/54 8/11/55 5/7/56
f 6/8/57 15/19/58 28/27/59 29/28/60
f 6/9/61 11/14/62 16/21/63 15/20/64
f 23/35/65 16/21/66 11/14/67 22/25/68
f 33/33/69 34/58/70 23/35/71 22/25/72
f 32/32/73 33/33/74 22/25/75 21/24/76
f 7/10/77 26/64/78 25/68/79 17/34/80
f 27/62/81 26/64/82 7/10/83 2/1/84
f 28/27/85 27/62/86 2/1/87 14/17/88
f 29/28/89 28/27/90 14/17/91 5/6/92
f 30/29/93 29/28/94 5/6/95 3/5/96
f 3/2/97 9/12/98 31/31/99 30/30/100
f 32/32/101 31/31/102 9/12/103 20/23/104
f 20/23/105 19/22/106 33/33/107 32/32/108
f 19/22/109 18/37/110 34/58/111 33/33/112
s 2
f 24/26/113 23/35/114 35/70/115 36/81/116
s off
f 43/38/117 42/36/118 44/40/119 45/39/120
f 1/79/121 12/15/122 38/54/123 37/80/124
f 12/15/125 24/26/126 39/55/127 38/54/128
s 2
f 24/26/129 36/81/116 40/61/130 39/55/131
s off
f 18/37/132 17/34/133 42/36/134 43/38/135
s 4
f 17/34/136 57/43/137 56/78/138 44/40/139 42/36/140
f 49/77/141 52/42/142 18/37/143 43/38/144 45/39/145
f 56/78/138 59/44/146 50/41/147 49/77/141 45/39/148 44/40/149
s off
f 48/72/150 47/84/151 51/85/152 50/41/153
f 47/84/154 46/59/155 52/42/156 51/85/157
f 55/74/158 54/86/159 58/87/160 57/43/161
f 54/86/162 53/73/163 59/44/164 58/87/165
s 7
f 62/56/166 61/88/167 64/89/168 63/45/169
s 8
f 61/88/170 60/63/171 65/46/172 64/89/173
s off
f 73/49/174 72/92/175 82/96/176 81/57/177
f 72/92/178 77/47/179 83/76/180 82/96/181
f 75/71/182 74/93/183 80/95/184 79/48/185
f 74/93/186 73/49/187 78/50/188 80/95/189
f 89/67/190 88/99/191 93/101/192 92/51/193
f 88/99/194 87/52/195 94/53/196 93/101/197
s 9
f 37/80/198 38/54/199 62/56/200 63/45/201
f 38/54/199 39/55/202 68/60/203 62/56/200
s 10
f 78/50/204 73/49/205 81/57/206 41/66/207
s off
f 48/72/208 50/41/209 59/44/210 53/73/211
s 11
f 23/35/212 34/58/213 46/59/214 35/70/215
s 9
f 68/60/203 39/55/202 40/61/216 71/75/217
s 11
f 34/58/213 18/37/218 52/42/219 46/59/214
s off
f 17/34/220 25/68/221 55/74/222 57/43/223
s 12
f 26/64/224 27/62/225 65/46/226 60/63/227
f 25/68/228 26/64/224 60/63/227 66/65/229
s 10
f 41/66/207 81/57/206 89/67/230 92/51/231
s 12
f 55/74/232 25/68/228 66/65/229 69/69/233
s 11
f 35/70/215 46/59/214 75/71/234 79/48/235
s 12
f 48/72/236 53/73/237 83/76/238 77/47/239
f 55/74/232 69/69/233 85/82/240
s 9
f 71/75/217 40/61/216 94/53/241 87/52/242
s 12
f 53/73/237 91/83/243 83/76/238
s 4
f 49/77/141 50/41/147 51/85/244
f 49/77/141 51/85/244 52/42/142
f 56/78/138 57/43/137 58/87/245
f 56/78/138 58/87/245 59/44/146
s 1
f 27/62/15 1/79/14 37/80/246 63/45/247 64/89/248 65/46/249
s 2
f 78/50/250 41/66/251 36/81/116 35/70/115 79/48/252 80/95/253
f 40/61/130 36/81/116 41/66/251 92/51/254 93/101/255 94/53/256
s off
f 46/59/257 47/84/258 76/94/259 75/71/260
f 47/84/261 48/72/262 77/47/263 76/94/264
s 12
f 53/73/237 54/86/265 84/97/266 91/83/243
f 54/86/265 55/74/232 85/82/240 84/97/266
s 8
f 60/63/171 61/88/170 67/90/267 66/65/268
s 7
f 61/88/167 62/56/166 68/60/269 67/90/270
s 8
f 66/65/268 67/90/267 70/91/271 69/69/272
s 7
f 67/90/270 68/60/269 71/75/273 70/91/274
s off
f 69/69/275 70/91/276 86/98/277 85/82/278
f 70/91/279 71/75/280 87/52/281 86/98/282
f 81/57/283 82/96/284 90/100/285 89/67/286
f 82/96/287 83/76/288 91/83/289 90/100/290
f 76/94/291 77/47/292 72/92/293 95/102/294
f 72/92/295 73/49/296 74/93/297 95/102/298
f 74/93/299 75/71/300 76/94/301 95/102/302
f 90/100/303 91/83/304 84/97/305 96/103/306
f 84/97/307 85/82/308 86/98/309 96/103/310
f 86/98/311 87/52/312 88/99/313 96/103/314
f 88/99/315 89/67/316 90/100/317 96/103/318
