# This file uses centimeters as units for non-parametric coordinates.

mtllib BigHouseMiddleBottom.mtl
g default
v -200.000000 0.075659 200.000000
v -200.000000 200.075651 200.000000
v -200.000000 200.075651 -200.000000
v -200.000000 0.075659 -200.000000
v -200.000000 200.075651 0.000000
v -200.000000 0.075659 0.000000
v 0.000001 200.075651 200.000000
v 0.000000 200.075651 0.000000
v 0.000000 200.075651 -200.000000
v 0.000001 0.075659 -200.000000
v 0.000000 0.075659 0.000000
v 0.000000 0.075659 200.000000
v 0.000000 200.075651 100.000000
v -200.000000 200.075651 100.000000
v -200.000000 0.075659 100.000000
v 0.000001 0.075659 100.000000
v 200.365082 200.075651 200.000000
v 200.365082 200.075651 100.000000
v 200.365082 200.075651 0.000000
v 200.365082 200.075651 -200.000000
v 200.365082 0.075659 -200.000000
v 200.365082 0.075659 0.000000
v 200.365082 0.075659 100.000000
v 200.365082 0.075659 200.000000
v 200.365082 100.075651 200.000000
v 0.000000 100.075651 200.000000
v -200.000000 100.075651 200.000000
v -200.000000 100.075651 100.000000
v -200.000000 100.075651 0.000000
v -200.000000 100.075651 -200.000000
v 0.000000 100.075651 -200.000000
v 200.365082 100.075651 -200.000000
v 200.365082 100.075651 0.000000
v 200.365082 100.075651 100.000000
v -200.000000 0.075659 215.000000
v 0.000000 0.075659 215.000000
v 200.365082 0.075659 215.000000
v 0.000000 100.075651 207.500748
v 0.000000 97.879171 212.803513
v 0.000000 92.576399 215.000000
v -200.000000 92.576399 215.000000
v -200.000000 97.879171 212.803513
v -200.000000 100.075651 207.500748
v 200.365082 97.879171 212.803513
v 200.365082 92.576399 215.000000
v 200.365082 100.075651 207.500748
v 200.365082 0.075659 207.500000
v 0.000000 0.075659 207.500000
v -200.000000 0.075659 207.500000
v -200.000000 0.075659 211.250000
v 0.000000 0.075659 211.250000
v 200.365082 0.075659 211.250000
vt 0.375000 0.250000
vt 0.375000 0.500000
vt 0.375000 0.750000
vt 0.125000 0.000000
vt 0.125000 0.250000
vt 0.250000 0.250000
vt 0.375000 0.375000
vt 0.250000 0.000000
vt 0.375000 0.875000
vt 0.500000 0.250000
vt 0.500000 0.375000
vt 0.500000 0.500000
vt 0.500000 0.750000
vt 0.500000 0.875000
vt 0.500000 1.000000
vt 0.500000 0.312500
vt 0.312500 0.250000
vt 0.375000 0.312500
vt 0.312500 0.000000
vt 0.375000 0.937500
vt 0.500000 0.937500
vt 0.597413 0.375000
vt 0.597413 0.500000
vt 0.597413 0.750000
vt 0.597413 0.875000
vt 0.597413 1.000000
vt 0.312500 0.125000
vt 0.250000 0.125000
vt 0.125000 0.125000
vt 0.375000 0.625000
vt 0.500000 0.625000
vt 0.597413 0.625000
vt 0.597413 0.625000
vt 0.597413 0.250000
vt 0.597413 0.937500
vt 0.597413 0.312500
vt 0.597413 0.625000
vt 0.375000 0.153122
vt 0.375000 0.125000
vt 0.500000 1.000000
vt 0.597413 1.000000
vt 0.500000 0.190618
vt 0.375000 0.125000
vt 0.500000 0.125000
vt 0.500000 0.125000
vt 0.375000 0.500000
vt 0.375000 0.500000
vt 0.597413 0.125000
vt 0.597413 0.125000
vt 0.597413 0.190618
vt 0.500000 0.125000
vt 0.375000 0.125000
vt 0.597413 0.125000
vt 0.597413 1.000000
vt 0.500000 1.000000
vt 0.375000 0.500000
vt 0.375000 0.500000
vt 0.500000 1.000000
vt 0.597413 1.000000
vn 0.000000 1.000000 0.000000
vn 0.000000 1.000000 0.000000
vn 0.000000 1.000000 0.000000
vn 0.000000 1.000000 0.000000
vn 0.000000 0.000000 -1.000000
vn 0.000000 0.000000 -1.000000
vn 0.000000 0.000000 -1.000000
vn 0.000000 0.000000 -1.000000
vn 0.000000 -1.000000 0.000000
vn 0.000000 -1.000000 0.000000
vn 0.000000 -1.000000 0.000000
vn 0.000000 -1.000000 0.000000
vn -1.000000 0.000000 0.000000
vn -1.000000 0.000000 0.000000
vn -1.000000 0.000000 0.000000
vn -1.000000 0.000000 0.000000
vn 0.000000 1.000000 0.000000
vn 0.000000 1.000000 0.000000
vn 0.000000 1.000000 0.000000
vn 0.000000 1.000000 0.000000
vn -1.000000 0.000000 0.000000
vn -1.000000 0.000000 0.000000
vn -1.000000 0.000000 0.000000
vn -1.000000 0.000000 0.000000
vn 0.000000 -1.000000 0.000000
vn 0.000000 -1.000000 0.000000
vn 0.000000 -1.000000 0.000000
vn 0.000000 -1.000000 0.000000
vn 0.000000 1.000000 -0.000000
vn 0.000000 1.000000 -0.000000
vn 0.000000 1.000000 -0.000000
vn 0.000000 1.000000 -0.000000
vn 0.000000 1.000000 0.000000
vn 0.000000 1.000000 0.000000
vn 0.000000 1.000000 0.000000
vn 0.000000 1.000000 0.000000
vn 0.000000 0.000000 -1.000000
vn 0.000000 0.000000 -1.000000
vn 0.000000 0.000000 -1.000000
vn 0.000000 0.000000 -1.000000
vn 0.000000 -1.000000 0.000000
vn 0.000000 -1.000000 0.000000
vn 0.000000 -1.000000 0.000000
vn 0.000000 -1.000000 0.000000
vn 0.000000 -1.000000 0.000000
vn 0.000000 -1.000000 0.000000
vn 0.000000 -1.000000 0.000000
vn 0.000000 -1.000000 0.000000
vn 0.000000 1.000000 0.000000
vn 0.000000 1.000000 0.000000
vn 0.000000 1.000000 0.000000
vn 0.000000 1.000000 0.000000
vn 0.000000 1.000000 0.000000
vn 0.000000 1.000000 0.000000
vn 0.000000 1.000000 0.000000
vn 0.000000 1.000000 0.000000
vn -1.000000 0.000000 0.000000
vn -1.000000 0.000000 0.000000
vn -1.000000 0.000000 0.000000
vn -1.000000 0.000000 0.000000
vn 0.000000 -1.000000 0.000000
vn 0.000000 -1.000000 0.000000
vn 0.000000 -1.000000 0.000000
vn 0.000000 -1.000000 0.000000
vn 0.000000 -1.000000 0.000000
vn 0.000000 -1.000000 0.000000
vn 0.000000 -1.000000 0.000000
vn 0.000000 -1.000000 0.000000
vn 1.000000 0.000000 0.000000
vn 1.000000 0.000000 0.000000
vn 1.000000 0.000000 0.000000
vn 1.000000 0.000000 0.000000
vn 1.000000 0.000000 0.000000
vn 1.000000 0.000000 0.000000
vn 1.000000 0.000000 0.000000
vn 1.000000 0.000000 0.000000
vn 0.000000 0.000000 1.000000
vn 0.000000 0.000000 1.000000
vn 0.000000 0.000000 1.000000
vn 0.000000 0.000000 1.000000
vn 0.000000 0.000000 1.000000
vn 0.000000 0.000000 1.000000
vn 0.000000 0.000000 1.000000
vn 0.000000 0.000000 1.000000
vn -1.000000 0.000000 0.000000
vn -1.000000 0.000000 0.000000
vn -1.000000 0.000000 0.000000
vn -1.000000 0.000000 0.000000
vn -1.000000 0.000000 0.000000
vn -1.000000 0.000000 0.000000
vn -1.000000 0.000000 0.000000
vn -1.000000 0.000000 0.000000
vn -1.000000 0.000000 0.000000
vn -1.000000 0.000000 0.000000
vn -1.000000 0.000000 0.000000
vn -1.000000 0.000000 0.000000
vn 0.000000 0.000000 -1.000000
vn 0.000000 0.000000 -1.000000
vn 0.000000 0.000000 -1.000000
vn 0.000000 0.000000 -1.000000
vn 0.000000 0.000000 -1.000000
vn 0.000000 0.000000 -1.000000
vn 0.000000 0.000000 -1.000000
vn 0.000000 0.000000 -1.000000
vn 1.000000 0.000000 0.000000
vn 1.000000 0.000000 0.000000
vn 1.000000 0.000000 0.000000
vn 1.000000 0.000000 0.000000
vn 1.000000 0.000000 0.000000
vn 1.000000 0.000000 0.000000
vn 1.000000 0.000000 0.000000
vn 1.000000 0.000000 0.000000
vn 1.000000 0.000000 0.000000
vn 1.000000 0.000000 0.000000
vn 1.000000 0.000000 0.000000
vn 1.000000 0.000000 0.000000
vn 1.000000 0.000000 0.000000
vn 1.000000 0.000000 0.000000
vn 1.000000 0.000000 0.000000
vn 1.000000 0.000000 0.000000
vn 0.000000 -1.000000 0.000000
vn 0.000000 -1.000000 0.000000
vn 0.000000 -1.000000 0.000000
vn 0.000000 -1.000000 0.000000
vn 0.000000 -1.000000 0.000000
vn 0.000000 -1.000000 0.000000
vn 0.000000 -1.000000 0.000000
vn 0.000000 -1.000000 0.000000
vn 0.000000 0.382684 0.923879
vn 0.000000 0.382684 0.923879
vn 0.000000 0.382684 0.923879
vn 0.000000 0.382684 0.923879
vn 0.000000 0.923879 0.382684
vn 0.000000 0.923879 0.382684
vn 0.000000 0.923879 0.382684
vn 0.000000 0.923879 0.382684
vn 0.000000 0.000000 1.000000
vn 0.000000 0.000000 1.000000
vn 0.000000 0.000000 1.000000
vn 0.000000 0.000000 1.000000
vn 0.000000 0.000000 1.000000
vn 0.000000 0.000000 1.000000
vn 0.000000 1.000000 0.000000
vn 0.000000 1.000000 0.000000
vn 0.000000 1.000000 0.000000
vn 0.000000 1.000000 0.000000
vn 0.000000 1.000000 0.000000
vn 0.000000 1.000000 0.000000
vn -1.000000 0.000000 0.000000
vn -1.000000 0.000000 0.000000
vn 1.000000 0.000000 0.000000
vn 1.000000 0.000000 0.000000
vn 0.000000 0.923879 0.382684
vn 0.000000 0.923879 0.382684
vn 0.000000 0.382684 0.923879
vn 0.000000 0.382684 0.923879
vn 1.000000 0.000000 0.000000
vn 1.000000 0.000000 0.000000
vn 1.000000 0.000000 0.000000
vn 1.000000 0.000000 0.000000
vn 0.000000 -1.000000 0.000000
vn 0.000000 -1.000000 0.000000
vn 0.000000 -1.000000 0.000000
vn 0.000000 -1.000000 0.000000
vn 0.000000 -1.000000 0.000000
vn 0.000000 -1.000000 0.000000
vn 0.000000 -1.000000 0.000000
vn 0.000000 -1.000000 0.000000
vn -1.000000 0.000000 0.000000
vn -1.000000 0.000000 0.000000
vn -1.000000 0.000000 0.000000
vn -1.000000 0.000000 0.000000
s off
g pCube1
usemtl initialShadingGroup
f 2/1/1 7/10/2 13/16/3 14/18/4
f 30/30/5 31/31/6 10/13/7 4/3/8
f 15/20/9 16/21/10 12/15/11 1/46/12
s 1
f 15/19/13 1/46/14 27/43/15 28/27/16
s off
f 5/7/17 8/11/18 9/12/19 3/2/20
f 4/4/21 6/8/22 29/28/23 30/29/24
f 4/3/25 10/13/26 11/14/27 6/9/28
f 7/10/29 17/34/30 18/36/31 13/16/32
f 9/12/33 8/11/34 19/22/35 20/23/36
f 10/13/37 31/31/38 32/32/39 21/24/40
f 11/14/41 10/13/42 21/24/43 22/25/44
f 12/15/45 16/21/46 23/35/47 24/26/48
f 13/16/49 18/36/50 19/22/51 8/11/52
f 14/18/53 13/16/54 8/11/55 5/7/56
f 6/8/57 15/19/58 28/27/59 29/28/60
f 6/9/61 11/14/62 16/21/63 15/20/64
f 23/35/65 16/21/66 11/14/67 22/25/68
f 33/33/69 34/37/70 23/35/71 22/25/72
f 32/32/73 33/33/74 22/25/75 21/24/76
f 7/10/77 26/45/78 25/48/79 17/34/80
f 27/43/81 26/45/82 7/10/83 2/1/84
f 28/27/85 27/43/86 2/1/87 14/17/88
f 29/28/89 28/27/90 14/17/91 5/6/92
f 30/29/93 29/28/94 5/6/95 3/5/96
f 3/2/97 9/12/98 31/31/99 30/30/100
f 32/32/101 31/31/102 9/12/103 20/23/104
f 20/23/105 19/22/106 33/33/107 32/32/108
f 19/22/109 18/36/110 34/37/111 33/33/112
f 34/37/113 18/36/114 17/34/115 25/48/116
s 2
f 24/26/117 23/35/118 34/37/119 25/48/120
s 3
f 1/46/121 12/15/122 48/55/123 49/56/124
s 4
f 12/15/125 24/26/126 47/54/127 48/55/128
s 5
f 40/42/129 39/51/130 42/52/131 41/38/132
s 6
f 39/51/133 38/44/134 43/39/135 42/52/136
s 7
f 35/47/137 36/40/138 40/42/139 41/38/140
f 36/40/138 37/41/141 45/50/142 40/42/139
s 8
f 26/45/143 27/43/144 43/39/145 38/44/146
f 25/48/147 26/45/143 38/44/146 46/49/148
s 1
f 27/43/15 1/46/14 49/56/149 43/39/150
s 2
f 46/49/151 47/54/152 24/26/117 25/48/120
s 6
f 38/44/134 39/51/133 44/53/153 46/49/154
s 5
f 39/51/130 40/42/129 45/50/155 44/53/156
s 2
f 44/53/157 45/50/158 37/41/159 52/59/160
s 4
f 51/58/161 52/59/162 37/41/163 36/40/164
s 3
f 50/57/165 51/58/166 36/40/167 35/47/168
s 1
f 42/52/169 50/57/170 35/47/171 41/38/172
f 43/39/150 49/56/149 50/57/170 42/52/169
s 3
f 49/56/124 48/55/123 51/58/166 50/57/165
s 4
f 48/55/128 47/54/127 52/59/162 51/58/161
s 2
f 44/53/157 52/59/160 47/54/152 46/49/151
