# This file uses centimeters as units for non-parametric coordinates.

mtllib MailBoxPost.mtl
g default
v -28.202581 5.049820 16.522060
v -16.522060 0.211578 16.522060
v -16.522060 5.049820 28.202581
v -16.522060 16.730347 33.040817
v -28.202581 16.730347 28.202581
v -33.040817 16.730347 16.522060
v 28.202581 5.049820 16.522060
v 33.040817 16.730347 16.522060
v 28.202581 16.730347 28.202581
v 16.522060 16.730347 33.040817
v 16.522060 5.049820 28.202581
v 16.522060 0.211578 16.522060
v -28.202581 237.729568 16.522060
v -33.040817 226.049042 16.522060
v -28.202581 226.049042 28.202581
v -16.522060 226.049042 33.040817
v -16.522060 237.729568 28.202581
v -16.522060 242.567795 16.522060
v 28.202581 237.729568 16.522060
v 16.522060 242.567795 16.522060
v 16.522060 237.729568 28.202581
v 16.522060 226.049042 33.040817
v 28.202581 226.049042 28.202581
v 33.040817 226.049042 16.522060
v -28.202581 226.049042 -28.202581
v -33.040817 226.049042 -16.522060
v -28.202581 237.729568 -16.522060
v -16.522060 242.567795 -16.522060
v -16.522060 237.729568 -28.202581
v -16.522060 226.049042 -33.040817
v 28.202581 226.049042 -28.202581
v 16.522060 226.049042 -33.040817
v 16.522060 237.729568 -28.202581
v 16.522060 242.567795 -16.522060
v 28.202581 237.729568 -16.522060
v 33.040817 226.049042 -16.522060
v -28.202581 5.049820 -16.522060
v -33.040817 16.730347 -16.522060
v -28.202581 16.730347 -28.202581
v -16.522060 16.730347 -33.040817
v -16.522060 5.049820 -28.202581
v -16.522060 0.211578 -16.522060
v 28.202581 5.049820 -16.522060
v 16.522060 0.211578 -16.522060
v 16.522060 5.049820 -28.202581
v 16.522060 16.730347 -33.040817
v 28.202581 16.730347 -28.202581
v 33.040817 16.730347 -16.522060
v -26.055838 7.196560 26.055838
v 26.055838 7.196560 26.055838
v -26.055838 235.582825 26.055838
v 26.055838 235.582825 26.055838
v -26.055838 235.582825 -26.055838
v 26.055838 235.582825 -26.055838
v -26.055838 7.196560 -26.055838
v 26.055838 7.196560 -26.055838
vt 0.437494 0.937506
vt 0.437494 0.017040
vt 0.562506 0.937506
vt 0.687494 0.017040
vt 0.437494 0.232960
vt 0.562506 0.232960
vt 0.687494 0.232960
vt 0.187494 0.017040
vt 0.437494 0.437506
vt 0.562506 0.437506
vt 0.812506 0.232960
vt 0.812506 0.017040
vt 0.562506 0.812494
vt 0.437494 0.732960
vt 0.562506 0.732960
vt 0.562506 0.017040
vt 0.437494 0.312494
vt 0.562506 0.312494
vt 0.437494 0.517040
vt 0.562506 0.517040
vt 0.437494 0.812494
vt 0.312506 0.017040
vt 0.312506 0.232960
vt 0.187494 0.232960
vt 0.375000 0.952853
vt 0.327853 -0.000000
vt 0.422147 -0.000000
vt 0.422147 1.000000
vt 0.375000 0.016681
vt 0.672147 -0.000000
vt 0.625000 0.952853
vt 0.625000 0.016681
vt 0.577853 1.000000
vt 0.577853 -0.000000
vt 0.327853 0.250000
vt 0.375000 0.297147
vt 0.375000 0.233319
vt 0.432820 0.266825
vt 0.625000 0.297147
vt 0.672147 0.250000
vt 0.567180 0.266825
vt 0.625000 0.233319
vt 0.125000 0.239093
vt 0.375000 0.510907
vt 0.375000 0.452853
vt 0.172147 0.250000
vt 0.432820 0.483175
vt 0.625000 0.510907
vt 0.875000 0.239093
vt 0.567180 0.483175
vt 0.827853 0.250000
vt 0.625000 0.452853
vt 0.172147 -0.000000
vt 0.375000 0.797147
vt 0.375000 0.739093
vt 0.125000 0.010907
vt 0.432820 0.766825
vt 0.625000 0.797147
vt 0.827853 -0.000000
vt 0.567180 0.766825
vt 0.875000 0.010907
vt 0.625000 0.739093
vt 0.375000 1.000000
vt 0.375000 0.000000
vt 0.625000 0.000000
vt 0.625000 1.000000
vt 0.375000 0.250000
vt 0.625000 0.250000
vt 0.125000 0.250000
vt 0.375000 0.500000
vt 0.625000 0.500000
vt 0.875000 0.250000
vt 0.125000 0.000000
vt 0.375000 0.750000
vt 0.625000 0.750000
vt 0.875000 0.000000
vn -0.382684 -0.923879 0.000000
vn -0.382684 -0.923879 0.000000
vn -0.382684 -0.923879 0.000000
vn -0.382684 -0.923879 0.000000
vn -0.923879 -0.382684 0.000000
vn -0.923879 -0.382684 0.000000
vn -0.923879 -0.382684 0.000000
vn -0.923879 -0.382684 0.000000
vn 0.000000 -0.382684 0.923879
vn 0.000000 -0.382684 0.923879
vn 0.000000 -0.382684 0.923879
vn 0.000000 -0.382684 0.923879
vn 0.000000 -0.923879 0.382684
vn 0.000000 -0.923879 0.382684
vn 0.000000 -0.923879 0.382684
vn 0.000000 -0.923879 0.382684
vn -0.923879 0.000000 0.382684
vn -0.923879 0.000000 0.382684
vn -0.923879 0.000000 0.382684
vn -0.923879 0.000000 0.382684
vn -0.382684 0.000000 0.923880
vn -0.382684 0.000000 0.923880
vn -0.382684 0.000000 0.923880
vn -0.382684 0.000000 0.923880
vn 0.923879 -0.382684 0.000000
vn 0.923879 -0.382684 0.000000
vn 0.923879 -0.382684 0.000000
vn 0.923879 -0.382684 0.000000
vn 0.382684 -0.923879 0.000000
vn 0.382684 -0.923879 0.000000
vn 0.382684 -0.923879 0.000000
vn 0.382684 -0.923879 0.000000
vn 0.382684 0.000000 0.923880
vn 0.382684 0.000000 0.923880
vn 0.382684 0.000000 0.923880
vn 0.382684 0.000000 0.923880
vn 0.923879 0.000000 0.382684
vn 0.923879 0.000000 0.382684
vn 0.923879 0.000000 0.382684
vn 0.923879 0.000000 0.382684
vn -0.923879 0.382684 0.000000
vn -0.923879 0.382684 0.000000
vn -0.923879 0.382684 0.000000
vn -0.923879 0.382684 0.000000
vn -0.382683 0.923880 0.000000
vn -0.382683 0.923880 0.000000
vn -0.382683 0.923880 0.000000
vn -0.382683 0.923880 0.000000
vn 0.000000 0.923880 0.382683
vn 0.000000 0.923880 0.382683
vn 0.000000 0.923880 0.382683
vn 0.000000 0.923880 0.382683
vn 0.000000 0.382684 0.923880
vn 0.000000 0.382684 0.923880
vn 0.000000 0.382684 0.923880
vn 0.000000 0.382684 0.923880
vn 0.382683 0.923880 0.000000
vn 0.382683 0.923880 0.000000
vn 0.382683 0.923880 0.000000
vn 0.382683 0.923880 0.000000
vn 0.923879 0.382684 0.000000
vn 0.923879 0.382684 0.000000
vn 0.923879 0.382684 0.000000
vn 0.923879 0.382684 0.000000
vn -0.923879 0.000000 -0.382684
vn -0.923879 0.000000 -0.382684
vn -0.923879 0.000000 -0.382684
vn -0.923879 0.000000 -0.382684
vn -0.382684 0.000000 -0.923880
vn -0.382684 0.000000 -0.923880
vn -0.382684 0.000000 -0.923880
vn -0.382684 0.000000 -0.923880
vn 0.000000 0.382684 -0.923880
vn 0.000000 0.382684 -0.923880
vn 0.000000 0.382684 -0.923880
vn 0.000000 0.382684 -0.923880
vn 0.000000 0.923880 -0.382683
vn 0.000000 0.923880 -0.382683
vn 0.000000 0.923880 -0.382683
vn 0.000000 0.923880 -0.382683
vn 0.382684 0.000000 -0.923880
vn 0.382684 0.000000 -0.923880
vn 0.382684 0.000000 -0.923880
vn 0.382684 0.000000 -0.923880
vn 0.923879 0.000000 -0.382684
vn 0.923879 0.000000 -0.382684
vn 0.923879 0.000000 -0.382684
vn 0.923879 0.000000 -0.382684
vn 0.000000 -0.923879 -0.382684
vn 0.000000 -0.923879 -0.382684
vn 0.000000 -0.923879 -0.382684
vn 0.000000 -0.923879 -0.382684
vn 0.000000 -0.382684 -0.923879
vn 0.000000 -0.382684 -0.923879
vn 0.000000 -0.382684 -0.923879
vn 0.000000 -0.382684 -0.923879
vn 0.000000 0.000000 1.000000
vn 0.000000 0.000000 1.000000
vn 0.000000 0.000000 1.000000
vn 0.000000 0.000000 1.000000
vn 0.000000 1.000000 0.000000
vn 0.000000 1.000000 0.000000
vn 0.000000 1.000000 0.000000
vn 0.000000 1.000000 0.000000
vn 0.000000 0.000000 -1.000000
vn 0.000000 0.000000 -1.000000
vn 0.000000 0.000000 -1.000000
vn 0.000000 0.000000 -1.000000
vn 0.000000 -1.000000 0.000000
vn 0.000000 -1.000000 0.000000
vn 0.000000 -1.000000 0.000000
vn 0.000000 -1.000000 0.000000
vn 1.000000 0.000000 0.000000
vn 1.000000 0.000000 0.000000
vn 1.000000 0.000000 0.000000
vn 1.000000 0.000000 0.000000
vn -1.000000 0.000000 0.000000
vn -1.000000 0.000000 0.000000
vn -1.000000 0.000000 0.000000
vn -1.000000 0.000000 0.000000
vn -0.887919 -0.325269 0.325269
vn -0.887919 -0.325269 0.325269
vn -0.887919 -0.325269 0.325269
vn -0.887919 -0.325269 0.325269
vn -0.325270 -0.887919 0.325270
vn -0.325270 -0.887919 0.325270
vn -0.325270 -0.887919 0.325270
vn -0.325270 -0.887919 0.325270
vn -0.325269 -0.325269 0.887919
vn -0.325269 -0.325269 0.887919
vn -0.325269 -0.325269 0.887919
vn -0.325269 -0.325269 0.887919
vn 0.325270 -0.887919 0.325270
vn 0.325270 -0.887919 0.325270
vn 0.325270 -0.887919 0.325270
vn 0.325269 -0.887919 0.325270
vn 0.887919 -0.325269 0.325269
vn 0.887919 -0.325269 0.325269
vn 0.887919 -0.325269 0.325269
vn 0.887919 -0.325269 0.325269
vn 0.325270 -0.325269 0.887919
vn 0.325269 -0.325269 0.887919
vn 0.325270 -0.325269 0.887919
vn 0.325270 -0.325269 0.887919
vn -0.325269 0.887919 0.325270
vn -0.325269 0.887919 0.325270
vn -0.325269 0.887919 0.325270
vn -0.325269 0.887919 0.325270
vn -0.887919 0.325269 0.325270
vn -0.887919 0.325269 0.325270
vn -0.887919 0.325269 0.325270
vn -0.887919 0.325269 0.325270
vn -0.325270 0.325270 0.887918
vn -0.325270 0.325270 0.887918
vn -0.325270 0.325270 0.887918
vn -0.325270 0.325270 0.887918
vn 0.887919 0.325269 0.325269
vn 0.887919 0.325269 0.325269
vn 0.887919 0.325269 0.325269
vn 0.887919 0.325269 0.325269
vn 0.325269 0.887918 0.325271
vn 0.325269 0.887918 0.325271
vn 0.325269 0.887918 0.325271
vn 0.325269 0.887918 0.325271
vn 0.325270 0.325270 0.887918
vn 0.325270 0.325270 0.887918
vn 0.325270 0.325270 0.887918
vn 0.325270 0.325270 0.887918
vn -0.325270 0.325270 -0.887918
vn -0.325270 0.325270 -0.887918
vn -0.325270 0.325270 -0.887918
vn -0.325270 0.325270 -0.887918
vn -0.887919 0.325269 -0.325269
vn -0.887919 0.325269 -0.325269
vn -0.887919 0.325269 -0.325269
vn -0.887919 0.325269 -0.325269
vn -0.325269 0.887918 -0.325271
vn -0.325269 0.887918 -0.325271
vn -0.325269 0.887918 -0.325271
vn -0.325269 0.887918 -0.325271
vn 0.887919 0.325269 -0.325270
vn 0.887919 0.325269 -0.325270
vn 0.887919 0.325269 -0.325270
vn 0.887919 0.325269 -0.325270
vn 0.325270 0.325270 -0.887918
vn 0.325270 0.325270 -0.887918
vn 0.325270 0.325270 -0.887918
vn 0.325270 0.325270 -0.887918
vn 0.325269 0.887919 -0.325270
vn 0.325269 0.887919 -0.325270
vn 0.325269 0.887919 -0.325270
vn 0.325269 0.887919 -0.325270
vn -0.325270 -0.887919 -0.325270
vn -0.325270 -0.887919 -0.325270
vn -0.325270 -0.887919 -0.325270
vn -0.325269 -0.887919 -0.325270
vn -0.887919 -0.325269 -0.325269
vn -0.887919 -0.325269 -0.325269
vn -0.887919 -0.325269 -0.325269
vn -0.887919 -0.325269 -0.325269
vn -0.325270 -0.325269 -0.887919
vn -0.325269 -0.325269 -0.887919
vn -0.325270 -0.325269 -0.887919
vn -0.325270 -0.325269 -0.887919
vn 0.887919 -0.325269 -0.325269
vn 0.887919 -0.325269 -0.325269
vn 0.887919 -0.325269 -0.325269
vn 0.887919 -0.325269 -0.325269
vn 0.325270 -0.887919 -0.325270
vn 0.325270 -0.887919 -0.325270
vn 0.325270 -0.887919 -0.325270
vn 0.325270 -0.887919 -0.325270
vn 0.325269 -0.325269 -0.887919
vn 0.325269 -0.325269 -0.887919
vn 0.325269 -0.325269 -0.887919
vn 0.325269 -0.325269 -0.887919
s off
g pCube1
usemtl initialShadingGroup
f 2/1/1 1/25/2 37/54/3 42/21/4
f 1/26/5 6/22/6 38/8/7 37/53/8
f 4/2/9 3/27/10 11/34/11 10/16/12
f 3/28/13 2/1/14 12/3/15 11/33/16
f 6/22/17 5/29/18 15/37/19 14/23/20
f 5/29/21 4/2/22 16/5/23 15/37/24
f 8/4/25 7/30/26 43/59/27 48/12/28
f 7/31/29 12/3/30 44/13/31 43/58/32
f 10/16/33 9/32/34 23/42/35 22/6/36
f 9/32/37 8/4/38 24/7/39 23/42/40
f 14/23/41 13/35/42 27/46/43 26/24/44
f 13/36/45 18/17/46 28/9/47 27/45/48
f 18/17/49 17/38/50 21/41/51 20/18/52
f 17/38/53 16/5/54 22/6/55 21/41/56
f 20/18/57 19/39/58 35/52/59 34/10/60
f 19/40/61 24/7/62 36/11/63 35/51/64
f 26/24/65 25/43/66 39/56/67 38/8/68
f 25/44/69 30/19/70 40/14/71 39/55/72
f 30/19/73 29/47/74 33/50/75 32/20/76
f 29/47/77 28/9/78 34/10/79 33/50/80
f 32/20/81 31/48/82 47/62/83 46/15/84
f 31/49/85 36/11/86 48/12/87 47/61/88
f 42/21/89 41/57/90 45/60/91 44/13/92
f 41/57/93 40/14/94 46/15/95 45/60/96
f 4/2/97 10/16/98 22/6/99 16/5/100
f 18/17/101 20/18/102 34/10/103 28/9/104
f 30/19/105 32/20/106 46/15/107 40/14/108
f 42/21/109 44/13/110 12/3/111 2/1/112
f 8/4/113 48/12/114 36/11/115 24/7/116
f 38/8/117 6/22/118 14/23/119 26/24/120
f 5/29/121 6/22/122 1/26/123 49/64/124
f 1/25/125 2/1/126 3/28/127 49/63/128
f 3/27/129 4/2/130 5/29/131 49/64/132
f 11/33/133 12/3/134 7/31/135 50/66/136
f 7/30/137 8/4/138 9/32/139 50/65/140
f 9/32/141 10/16/142 11/34/143 50/65/144
f 17/38/145 18/17/146 13/36/147 51/67/148
f 13/35/149 14/23/150 15/37/151 51/67/152
f 15/37/153 16/5/154 17/38/155 51/67/156
f 23/42/157 24/7/158 19/40/159 52/68/160
f 19/39/161 20/18/162 21/41/163 52/68/164
f 21/41/165 22/6/166 23/42/167 52/68/168
f 29/47/169 30/19/170 25/44/171 53/70/172
f 25/43/173 26/24/174 27/46/175 53/69/176
f 27/45/177 28/9/178 29/47/179 53/70/180
f 35/51/181 36/11/182 31/49/183 54/72/184
f 31/48/185 32/20/186 33/50/187 54/71/188
f 33/50/189 34/10/190 35/52/191 54/71/192
f 41/57/193 42/21/194 37/54/195 55/74/196
f 37/53/197 38/8/198 39/56/199 55/73/200
f 39/55/201 40/14/202 41/57/203 55/74/204
f 47/61/205 48/12/206 43/59/207 56/76/208
f 43/58/209 44/13/210 45/60/211 56/75/212
f 45/60/213 46/15/214 47/62/215 56/75/216
