# This file uses centimeters as units for non-parametric coordinates.

mtllib SimpleFlatBlock.mtl
g default
v -195.607040 4.392960 185.001495
v -185.001495 0.000000 185.001495
v -185.001495 4.392960 195.607040
v -185.001495 14.998497 200.000000
v -195.607040 14.998497 195.607040
v -200.000000 14.998497 185.001495
v 195.607040 4.392960 185.001495
v 200.000000 14.998497 185.001495
v 195.607040 14.998497 195.607040
v 185.001495 14.998497 200.000000
v 185.001495 4.392960 195.607040
v 185.001495 0.000000 185.001495
v -195.607040 195.607040 185.001495
v -200.000000 185.001503 185.001495
v -195.607040 185.001503 195.607040
v -185.001495 185.001503 200.000000
v -185.001495 195.607040 195.607040
v -185.001495 200.000000 185.001495
v 195.607040 195.607040 185.001495
v 185.001495 200.000000 185.001495
v 185.001495 195.607040 195.607040
v 185.001495 185.001503 200.000000
v 195.607040 185.001503 195.607040
v 200.000000 185.001503 185.001495
v -195.607040 185.001503 -195.607040
v -200.000000 185.001503 -185.001495
v -195.607040 195.607040 -185.001495
v -185.001495 200.000000 -185.001495
v -185.001495 195.607040 -195.607040
v -185.001495 185.001503 -200.000000
v 195.607040 185.001503 -195.607040
v 185.001495 185.001503 -200.000000
v 185.001495 195.607040 -195.607040
v 185.001495 200.000000 -185.001495
v 195.607040 195.607040 -185.001495
v 200.000000 185.001503 -185.001495
v -195.607040 4.392960 -185.001495
v -200.000000 14.998497 -185.001495
v -195.607040 14.998497 -195.607040
v -185.001495 14.998497 -200.000000
v -185.001495 4.392960 -195.607040
v -185.001495 0.000000 -185.001495
v 195.607040 4.392960 -185.001495
v 185.001495 0.000000 -185.001495
v 185.001495 4.392960 -195.607040
v 185.001495 14.998497 -200.000000
v 195.607040 14.998497 -195.607040
v 200.000000 14.998497 -185.001495
v -193.657867 6.342133 193.657867
v 193.657867 6.342133 193.657867
v -193.657867 193.657867 193.657867
v 193.657867 193.657867 193.657867
v -193.657867 193.657867 -193.657867
v 193.657867 193.657867 -193.657867
v -193.657867 6.342133 -193.657867
v 193.657867 6.342133 -193.657867
vt 0.458242 0.013957
vt 0.470397 0.013957
vt 0.470397 0.438031
vt 0.458242 0.438031
vt 0.470397 0.001802
vt 0.460476 0.004036
vt 0.665244 0.013957
vt 0.665244 0.438031
vt 0.470397 0.450187
vt 0.460476 0.447953
vt 0.665244 0.001802
vt 0.677400 0.013957
vt 0.677400 0.438031
vt 0.665244 0.450187
vt 0.675165 0.004036
vt 0.675165 0.447953
vt 0.791006 0.890408
vt 0.778850 0.890408
vt 0.778850 0.466334
vt 0.791006 0.466334
vt 0.791006 0.902564
vt 0.781084 0.900330
vt 0.791006 0.454178
vt 0.781084 0.456412
vt 0.985852 0.466334
vt 0.985852 0.890408
vt 0.985852 0.902564
vt 0.985852 0.454178
vt 0.998008 0.890408
vt 0.998008 0.466334
vt 0.995774 0.900330
vt 0.995774 0.456412
vt 0.014147 0.438031
vt 0.001992 0.438031
vt 0.001992 0.013957
vt 0.014147 0.013957
vt 0.014147 0.450187
vt 0.004226 0.447953
vt 0.014147 0.001802
vt 0.004226 0.004036
vt 0.438222 0.013957
vt 0.438222 0.438031
vt 0.438222 0.450187
vt 0.438222 0.001802
vt 0.450377 0.438031
vt 0.450377 0.013957
vt 0.448143 0.447953
vt 0.448143 0.004036
vt 0.324330 0.466334
vt 0.336485 0.466334
vt 0.336485 0.890408
vt 0.324330 0.890408
vt 0.336485 0.454178
vt 0.326564 0.456412
vt 0.760559 0.466334
vt 0.760559 0.890408
vt 0.336485 0.902564
vt 0.326564 0.900330
vt 0.760559 0.454178
vt 0.772715 0.466334
vt 0.772715 0.890408
vt 0.760559 0.902564
vt 0.770481 0.456412
vt 0.770481 0.900330
vt 0.696476 0.438031
vt 0.684320 0.438031
vt 0.684320 0.013957
vt 0.696476 0.013957
vt 0.696476 0.450187
vt 0.686554 0.447953
vt 0.696476 0.001802
vt 0.686554 0.004036
vt 0.891322 0.013957
vt 0.891322 0.438031
vt 0.891322 0.450187
vt 0.891322 0.001802
vt 0.903478 0.438031
vt 0.903478 0.013957
vt 0.901244 0.447953
vt 0.901244 0.004036
vt 0.111192 0.902564
vt 0.111192 0.890408
vt 0.306039 0.890408
vt 0.306039 0.902564
vt 0.099037 0.890408
vt 0.101271 0.900330
vt 0.111192 0.466334
vt 0.306039 0.466334
vt 0.318194 0.890408
vt 0.315960 0.900330
vt 0.099037 0.466334
vt 0.111192 0.454178
vt 0.306039 0.454178
vt 0.318194 0.466334
vt 0.101271 0.456412
vt 0.315960 0.456412
vn -0.382684 -0.923879 0.000000
vn -0.382684 -0.923879 0.000000
vn -0.382684 -0.923879 0.000000
vn -0.382684 -0.923879 0.000000
vn -0.923879 -0.382685 0.000000
vn -0.923879 -0.382685 0.000000
vn -0.923879 -0.382685 0.000000
vn -0.923879 -0.382685 0.000000
vn 0.000000 -0.382684 0.923879
vn 0.000000 -0.382684 0.923879
vn 0.000000 -0.382684 0.923879
vn 0.000000 -0.382684 0.923879
vn 0.000000 -0.923879 0.382684
vn 0.000000 -0.923879 0.382684
vn 0.000000 -0.923879 0.382684
vn 0.000000 -0.923879 0.382684
vn -0.923880 0.000000 0.382683
vn -0.923880 0.000000 0.382683
vn -0.923880 0.000000 0.382683
vn -0.923880 0.000000 0.382683
vn -0.382683 0.000000 0.923880
vn -0.382683 0.000000 0.923880
vn -0.382683 0.000000 0.923880
vn -0.382683 0.000000 0.923880
vn 0.923879 -0.382685 0.000000
vn 0.923879 -0.382685 0.000000
vn 0.923879 -0.382685 0.000000
vn 0.923879 -0.382685 0.000000
vn 0.382684 -0.923879 0.000000
vn 0.382684 -0.923879 0.000000
vn 0.382684 -0.923879 0.000000
vn 0.382684 -0.923879 0.000000
vn 0.382683 0.000000 0.923880
vn 0.382683 0.000000 0.923880
vn 0.382683 0.000000 0.923880
vn 0.382683 0.000000 0.923880
vn 0.923880 0.000000 0.382683
vn 0.923880 0.000000 0.382683
vn 0.923880 0.000000 0.382683
vn 0.923880 0.000000 0.382683
vn -0.923879 0.382685 0.000000
vn -0.923879 0.382685 0.000000
vn -0.923879 0.382685 0.000000
vn -0.923879 0.382685 0.000000
vn -0.382684 0.923879 0.000000
vn -0.382684 0.923879 0.000000
vn -0.382684 0.923879 0.000000
vn -0.382684 0.923879 0.000000
vn 0.000000 0.923879 0.382684
vn 0.000000 0.923879 0.382684
vn 0.000000 0.923879 0.382684
vn 0.000000 0.923879 0.382684
vn 0.000000 0.382684 0.923879
vn 0.000000 0.382684 0.923879
vn 0.000000 0.382684 0.923879
vn 0.000000 0.382684 0.923879
vn 0.382684 0.923879 0.000000
vn 0.382684 0.923879 0.000000
vn 0.382684 0.923879 0.000000
vn 0.382684 0.923879 0.000000
vn 0.923879 0.382685 0.000000
vn 0.923879 0.382685 0.000000
vn 0.923879 0.382685 0.000000
vn 0.923879 0.382685 0.000000
vn -0.923880 0.000000 -0.382683
vn -0.923880 0.000000 -0.382683
vn -0.923880 0.000000 -0.382683
vn -0.923880 0.000000 -0.382683
vn -0.382683 0.000000 -0.923880
vn -0.382683 0.000000 -0.923880
vn -0.382683 0.000000 -0.923880
vn -0.382683 0.000000 -0.923880
vn 0.000000 0.382684 -0.923879
vn 0.000000 0.382684 -0.923879
vn 0.000000 0.382684 -0.923879
vn 0.000000 0.382684 -0.923879
vn 0.000000 0.923879 -0.382684
vn 0.000000 0.923879 -0.382684
vn 0.000000 0.923879 -0.382684
vn 0.000000 0.923879 -0.382684
vn 0.382683 0.000000 -0.923880
vn 0.382683 0.000000 -0.923880
vn 0.382683 0.000000 -0.923880
vn 0.382683 0.000000 -0.923880
vn 0.923880 0.000000 -0.382683
vn 0.923880 0.000000 -0.382683
vn 0.923880 0.000000 -0.382683
vn 0.923880 0.000000 -0.382683
vn 0.000000 -0.923879 -0.382684
vn 0.000000 -0.923879 -0.382684
vn 0.000000 -0.923879 -0.382684
vn 0.000000 -0.923879 -0.382684
vn 0.000000 -0.382684 -0.923879
vn 0.000000 -0.382684 -0.923879
vn 0.000000 -0.382684 -0.923879
vn 0.000000 -0.382684 -0.923879
vn 0.000000 0.000000 1.000000
vn 0.000000 0.000000 1.000000
vn 0.000000 0.000000 1.000000
vn 0.000000 0.000000 1.000000
vn 0.000000 1.000000 0.000000
vn 0.000000 1.000000 0.000000
vn 0.000000 1.000000 0.000000
vn 0.000000 1.000000 0.000000
vn 0.000000 0.000000 -1.000000
vn 0.000000 0.000000 -1.000000
vn 0.000000 0.000000 -1.000000
vn 0.000000 0.000000 -1.000000
vn 0.000000 -1.000000 0.000000
vn 0.000000 -1.000000 0.000000
vn 0.000000 -1.000000 0.000000
vn 0.000000 -1.000000 0.000000
vn 1.000000 0.000000 0.000000
vn 1.000000 0.000000 0.000000
vn 1.000000 0.000000 0.000000
vn 1.000000 0.000000 0.000000
vn -1.000000 0.000000 0.000000
vn -1.000000 0.000000 0.000000
vn -1.000000 0.000000 0.000000
vn -1.000000 0.000000 0.000000
vn -0.887918 -0.325271 0.325270
vn -0.887918 -0.325271 0.325270
vn -0.887918 -0.325271 0.325270
vn -0.887918 -0.325271 0.325270
vn -0.325269 -0.887919 0.325270
vn -0.325269 -0.887919 0.325270
vn -0.325269 -0.887919 0.325270
vn -0.325269 -0.887919 0.325270
vn -0.325271 -0.325269 0.887918
vn -0.325271 -0.325269 0.887918
vn -0.325271 -0.325269 0.887918
vn -0.325271 -0.325269 0.887918
vn 0.325269 -0.887919 0.325270
vn 0.325269 -0.887919 0.325270
vn 0.325269 -0.887919 0.325270
vn 0.325269 -0.887919 0.325270
vn 0.887918 -0.325271 0.325269
vn 0.887918 -0.325271 0.325269
vn 0.887918 -0.325270 0.325269
vn 0.887918 -0.325271 0.325269
vn 0.325271 -0.325269 0.887918
vn 0.325271 -0.325269 0.887918
vn 0.325271 -0.325269 0.887918
vn 0.325271 -0.325269 0.887918
vn -0.325269 0.887919 0.325270
vn -0.325269 0.887919 0.325270
vn -0.325269 0.887919 0.325270
vn -0.325269 0.887919 0.325270
vn -0.887918 0.325271 0.325269
vn -0.887918 0.325271 0.325269
vn -0.887918 0.325270 0.325269
vn -0.887918 0.325271 0.325269
vn -0.325271 0.325269 0.887918
vn -0.325271 0.325269 0.887918
vn -0.325271 0.325269 0.887918
vn -0.325271 0.325269 0.887918
vn 0.887918 0.325271 0.325270
vn 0.887918 0.325271 0.325270
vn 0.887918 0.325271 0.325270
vn 0.887918 0.325271 0.325270
vn 0.325269 0.887919 0.325270
vn 0.325269 0.887919 0.325270
vn 0.325269 0.887919 0.325270
vn 0.325269 0.887919 0.325270
vn 0.325271 0.325269 0.887918
vn 0.325271 0.325269 0.887918
vn 0.325271 0.325269 0.887918
vn 0.325271 0.325269 0.887918
vn -0.325271 0.325269 -0.887918
vn -0.325271 0.325269 -0.887918
vn -0.325271 0.325269 -0.887918
vn -0.325271 0.325269 -0.887918
vn -0.887918 0.325271 -0.325270
vn -0.887918 0.325271 -0.325270
vn -0.887918 0.325271 -0.325270
vn -0.887918 0.325271 -0.325270
vn -0.325269 0.887919 -0.325270
vn -0.325269 0.887919 -0.325270
vn -0.325269 0.887919 -0.325270
vn -0.325269 0.887919 -0.325270
vn 0.887918 0.325271 -0.325269
vn 0.887918 0.325271 -0.325269
vn 0.887918 0.325270 -0.325269
vn 0.887918 0.325271 -0.325269
vn 0.325271 0.325269 -0.887918
vn 0.325271 0.325269 -0.887918
vn 0.325271 0.325269 -0.887918
vn 0.325271 0.325269 -0.887918
vn 0.325269 0.887919 -0.325270
vn 0.325269 0.887919 -0.325270
vn 0.325269 0.887919 -0.325270
vn 0.325269 0.887919 -0.325270
vn -0.325269 -0.887919 -0.325270
vn -0.325269 -0.887919 -0.325270
vn -0.325269 -0.887919 -0.325270
vn -0.325269 -0.887919 -0.325270
vn -0.887918 -0.325271 -0.325269
vn -0.887918 -0.325271 -0.325269
vn -0.887918 -0.325270 -0.325269
vn -0.887918 -0.325271 -0.325269
vn -0.325271 -0.325269 -0.887918
vn -0.325271 -0.325269 -0.887918
vn -0.325271 -0.325269 -0.887918
vn -0.325271 -0.325269 -0.887918
vn 0.887918 -0.325271 -0.325270
vn 0.887918 -0.325271 -0.325270
vn 0.887918 -0.325271 -0.325270
vn 0.887918 -0.325271 -0.325270
vn 0.325269 -0.887919 -0.325270
vn 0.325269 -0.887919 -0.325270
vn 0.325269 -0.887919 -0.325270
vn 0.325269 -0.887919 -0.325270
vn 0.325271 -0.325269 -0.887918
vn 0.325271 -0.325269 -0.887918
vn 0.325271 -0.325269 -0.887918
vn 0.325271 -0.325269 -0.887918
s off
g pCube2
usemtl initialShadingGroup
f 2/33/1 1/34/2 37/35/3 42/36/4
f 1/1/5 6/2/6 38/3/7 37/4/8
f 4/65/9 3/66/10 11/67/11 10/68/12
f 3/37/13 2/33/14 12/42/15 11/43/16
f 6/2/17 5/5/18 15/11/19 14/7/20
f 5/69/21 4/65/22 16/74/23 15/75/24
f 8/17/25 7/18/26 43/19/27 48/20/28
f 7/45/29 12/42/30 44/41/31 43/46/32
f 10/68/33 9/71/34 23/76/35 22/73/36
f 9/21/37 8/17/38 24/26/39 23/27/40
f 14/7/41 13/12/42 27/13/43 26/8/44
f 13/49/45 18/50/46 28/51/47 27/52/48
f 18/50/49 17/53/50 21/59/51 20/55/52
f 17/77/53 16/74/54 22/73/55 21/78/56
f 20/55/57 19/60/58 35/61/59 34/56/60
f 19/29/61 24/26/62 36/25/63 35/30/64
f 26/8/65 25/14/66 39/9/67 38/3/68
f 25/81/69 30/82/70 40/83/71 39/84/72
f 30/82/73 29/85/74 33/91/75 32/87/76
f 29/57/77 28/51/78 34/56/79 33/62/80
f 32/87/81 31/92/82 47/93/83 46/88/84
f 31/28/85 36/25/86 48/20/87 47/23/88
f 42/36/89 41/39/90 45/44/91 44/41/92
f 41/89/93 40/83/94 46/88/95 45/94/96
f 4/65/97 10/68/98 22/73/99 16/74/100
f 18/50/101 20/55/102 34/56/103 28/51/104
f 30/82/105 32/87/106 46/88/107 40/83/108
f 42/36/109 44/41/110 12/42/111 2/33/112
f 8/17/113 48/20/114 36/25/115 24/26/116
f 38/3/117 6/2/118 14/7/119 26/8/120
f 5/5/121 6/2/122 1/1/123 49/6/124
f 1/34/125 2/33/126 3/37/127 49/38/128
f 3/66/129 4/65/130 5/69/131 49/70/132
f 11/43/133 12/42/134 7/45/135 50/47/136
f 7/18/137 8/17/138 9/21/139 50/22/140
f 9/71/141 10/68/142 11/67/143 50/72/144
f 17/53/145 18/50/146 13/49/147 51/54/148
f 13/12/149 14/7/150 15/11/151 51/15/152
f 15/75/153 16/74/154 17/77/155 51/79/156
f 23/27/157 24/26/158 19/29/159 52/31/160
f 19/60/161 20/55/162 21/59/163 52/63/164
f 21/78/165 22/73/166 23/76/167 52/80/168
f 29/85/169 30/82/170 25/81/171 53/86/172
f 25/14/173 26/8/174 27/13/175 53/16/176
f 27/52/177 28/51/178 29/57/179 53/58/180
f 35/30/181 36/25/182 31/28/183 54/32/184
f 31/92/185 32/87/186 33/91/187 54/95/188
f 33/62/189 34/56/190 35/61/191 54/64/192
f 41/39/193 42/36/194 37/35/195 55/40/196
f 37/4/197 38/3/198 39/9/199 55/10/200
f 39/84/201 40/83/202 41/89/203 55/90/204
f 47/23/205 48/20/206 43/19/207 56/24/208
f 43/46/209 44/41/210 45/44/211 56/48/212
f 45/94/213 46/88/214 47/93/215 56/96/216
